<?xml version='1.0' encoding='UTF-8' standalone='no'?>
<!-- Created with Fritzing (http://www.fritzing.org/) -->
<svg xmlns="http://www.w3.org/2000/svg" width="2.947in" x="0in" version="1.2" y="0in"  height="4.19063in" viewBox="0 0 212.184 301.725" baseProfile="tiny" xmlns:svg="http://www.w3.org/2000/svg">
 <g  id="watermark">
  <g >
   <path fill="#8C8C8C"  d="M104.367,299.397L102.442,293.833L102.407,293.833c0.017,0.214,0.032,0.427,0.044,0.64c0.012,0.183,0.021,0.375,0.028,0.574c0.007,0.203,0.011,0.385,0.011,0.551l0,3.8L101.742,299.398L101.742,293.042l1.199,0l1.791,5.181l0.025,0l1.8,-5.181L107.757,293.042l0,6.354L106.948,299.396l0,-3.854c0,-0.15,0.003,-0.324,0.009,-0.518s0.013,-0.38,0.021,-0.557c0.012,-0.207,0.021,-0.416,0.029,-0.625L106.975,293.842L105.031,299.397L104.367,299.397z"/>
   <path fill="#8C8C8C"  d="M112.067,299.397l-0.16,-0.661l-0.035,0c-0.095,0.131,-0.19,0.243,-0.286,0.338c-0.095,0.095,-0.2,0.172,-0.313,0.231c-0.113,0.062,-0.239,0.106,-0.378,0.136c-0.141,0.028,-0.3,0.042,-0.482,0.042c-0.2,0,-0.384,-0.026,-0.552,-0.084c-0.168,-0.057,-0.314,-0.144,-0.438,-0.261c-0.122,-0.116,-0.219,-0.265,-0.288,-0.443S109.031,298.307,109.031,298.062c0,-0.475,0.167,-0.841,0.501,-1.095c0.335,-0.256,0.845,-0.394,1.528,-0.418l0.799,-0.029l0,-0.301c0,-0.193,-0.021,-0.356,-0.063,-0.486s-0.103,-0.234,-0.183,-0.314s-0.178,-0.138,-0.295,-0.172c-0.117,-0.035,-0.251,-0.052,-0.402,-0.052c-0.241,0,-0.464,0.034,-0.671,0.104c-0.207,0.068,-0.407,0.152,-0.597,0.25L109.369,294.956c0.214,-0.117,0.453,-0.217,0.717,-0.298c0.264,-0.079,0.54,-0.12,0.83,-0.12c0.296,0,0.551,0.029,0.768,0.09c0.216,0.059,0.395,0.151,0.534,0.28c0.141,0.13,0.247,0.294,0.316,0.494c0.07,0.199,0.104,0.44,0.104,0.726l0,3.269L112.067,299.397L112.067,299.397zM110.616,298.846c0.178,0,0.341,-0.028,0.491,-0.084c0.149,-0.055,0.282,-0.138,0.391,-0.249c0.11,-0.111,0.196,-0.252,0.258,-0.422c0.063,-0.17,0.094,-0.369,0.094,-0.599l0,-0.43l-0.621,0.03c-0.262,0.012,-0.48,0.041,-0.656,0.086c-0.175,0.047,-0.317,0.113,-0.423,0.193c-0.105,0.084,-0.183,0.185,-0.229,0.301c-0.046,0.117,-0.068,0.25,-0.068,0.398c0,0.268,0.069,0.462,0.211,0.586C110.203,298.783,110.387,298.846,110.616,298.846z"/>
   <path fill="#8C8C8C"  d="M117.049,298.758l-0.034,0c-0.063,0.099,-0.139,0.191,-0.224,0.281c-0.085,0.088,-0.184,0.165,-0.296,0.231c-0.111,0.066,-0.237,0.118,-0.376,0.156c-0.139,0.037,-0.295,0.056,-0.47,0.056c-0.271,0,-0.517,-0.051,-0.738,-0.154c-0.223,-0.105,-0.416,-0.262,-0.575,-0.469s-0.282,-0.464,-0.369,-0.771c-0.087,-0.309,-0.13,-0.664,-0.13,-1.069c0,-0.408,0.043,-0.767,0.13,-1.076c0.086,-0.31,0.209,-0.567,0.369,-0.774c0.159,-0.209,0.352,-0.367,0.575,-0.473c0.222,-0.105,0.469,-0.158,0.738,-0.158c0.171,0,0.327,0.02,0.466,0.057s0.264,0.088,0.376,0.152c0.112,0.063,0.211,0.137,0.297,0.221s0.163,0.172,0.227,0.266l0.052,0c-0.009,-0.1,-0.018,-0.191,-0.026,-0.283c-0.006,-0.074,-0.012,-0.152,-0.018,-0.232c-0.005,-0.078,-0.009,-0.143,-0.009,-0.188L117.014,292.634l0.792,0l0,6.763l-0.641,0L117.049,298.758zM115.801,298.829c0.221,0,0.407,-0.033,0.56,-0.102c0.151,-0.065,0.274,-0.168,0.37,-0.304c0.094,-0.136,0.163,-0.308,0.209,-0.512c0.044,-0.204,0.069,-0.442,0.076,-0.716l0,-0.177c0,-0.292,-0.02,-0.552,-0.059,-0.78c-0.04,-0.229,-0.105,-0.418,-0.2,-0.574c-0.094,-0.154,-0.219,-0.271,-0.376,-0.351c-0.156,-0.08,-0.352,-0.119,-0.586,-0.119c-0.391,0,-0.679,0.157,-0.861,0.474c-0.185,0.315,-0.277,0.771,-0.277,1.359c0,0.605,0.092,1.058,0.277,1.354C115.114,298.679,115.404,298.829,115.801,298.829z"/>
   <path fill="#8C8C8C"  d="M121.203,299.483c-0.318,0,-0.609,-0.053,-0.874,-0.16c-0.263,-0.106,-0.49,-0.264,-0.68,-0.469c-0.19,-0.207,-0.338,-0.461,-0.442,-0.766c-0.104,-0.306,-0.156,-0.651,-0.156,-1.045s0.049,-0.744,0.144,-1.055c0.096,-0.311,0.229,-0.574,0.405,-0.789c0.174,-0.216,0.382,-0.381,0.623,-0.492c0.241,-0.113,0.51,-0.17,0.802,-0.17c0.287,0,0.545,0.051,0.772,0.153c0.229,0.104,0.423,0.248,0.583,0.435c0.159,0.188,0.282,0.412,0.367,0.674c0.087,0.263,0.13,0.554,0.13,0.873l0,0.49l-3.008,0c0.015,0.559,0.133,0.971,0.354,1.234c0.222,0.263,0.551,0.396,0.987,0.396c0.149,0,0.285,-0.008,0.411,-0.021s0.248,-0.035,0.365,-0.063c0.118,-0.026,0.23,-0.063,0.342,-0.104s0.222,-0.089,0.334,-0.142l0,0.704c-0.116,0.055,-0.229,0.104,-0.341,0.144c-0.112,0.041,-0.226,0.074,-0.343,0.102c-0.117,0.024,-0.239,0.045,-0.365,0.056S121.352,299.483,121.203,299.483zM121.008,295.195c-0.331,0,-0.592,0.112,-0.783,0.339c-0.193,0.227,-0.307,0.555,-0.338,0.985l2.14,0c0,-0.196,-0.021,-0.378,-0.06,-0.541c-0.039,-0.164,-0.1,-0.304,-0.183,-0.419s-0.187,-0.205,-0.315,-0.27C121.341,295.225,121.188,295.195,121.008,295.195z"/>
   <path fill="#8C8C8C"  d="M130.017,299.397l-0.729,-2.678c-0.012,-0.053,-0.026,-0.111,-0.044,-0.176c-0.017,-0.065,-0.034,-0.136,-0.051,-0.207c-0.019,-0.072,-0.036,-0.146,-0.055,-0.223c-0.02,-0.074,-0.037,-0.148,-0.055,-0.222c-0.041,-0.169,-0.083,-0.341,-0.126,-0.521l-0.024,0c-0.041,0.182,-0.08,0.356,-0.117,0.524c-0.032,0.146,-0.066,0.294,-0.104,0.448c-0.037,0.152,-0.069,0.283,-0.103,0.391l-0.75,2.66l-0.917,0l-1.221,-4.771l0.83,0l0.57,2.539c0.029,0.129,0.059,0.27,0.086,0.423c0.028,0.151,0.057,0.303,0.082,0.452c0.026,0.148,0.05,0.288,0.07,0.421c0.02,0.132,0.037,0.238,0.049,0.322l0.025,0c0.015,-0.074,0.034,-0.177,0.059,-0.302c0.025,-0.126,0.052,-0.26,0.083,-0.399c0.031,-0.141,0.063,-0.28,0.093,-0.417c0.032,-0.139,0.063,-0.254,0.091,-0.351l0.778,-2.69l0.853,0l0.748,2.69c0.025,0.098,0.056,0.215,0.089,0.348c0.033,0.135,0.065,0.27,0.098,0.407c0.032,0.139,0.061,0.271,0.087,0.397c0.025,0.127,0.045,0.231,0.056,0.315l0.026,0c0.01,-0.074,0.022,-0.177,0.042,-0.302c0.02,-0.126,0.042,-0.265,0.067,-0.415c0.025,-0.149,0.054,-0.306,0.084,-0.464c0.03,-0.157,0.062,-0.306,0.094,-0.44L131.377,294.624l0.809,0l-1.234,4.771L130.017,299.395L130.017,299.397z"/>
   <path fill="#8C8C8C"  d="M132.972,293.334c0,-0.175,0.045,-0.3,0.133,-0.379c0.088,-0.078,0.197,-0.117,0.328,-0.117c0.063,0,0.123,0.011,0.181,0.028c0.056,0.019,0.104,0.049,0.147,0.089c0.042,0.041,0.075,0.092,0.101,0.154c0.023,0.063,0.037,0.137,0.037,0.224c0,0.168,-0.045,0.293,-0.138,0.376c-0.092,0.083,-0.2,0.123,-0.327,0.123c-0.131,0,-0.24,-0.04,-0.328,-0.12C133.018,293.631,132.972,293.504,132.972,293.334zM133.824,299.397l-0.791,0L133.033,294.624l0.791,0L133.824,299.397z"/>
   <path fill="#8C8C8C"  d="M136.78,298.836c0.052,0,0.111,-0.003,0.176,-0.01c0.066,-0.006,0.128,-0.013,0.189,-0.021c0.061,-0.009,0.116,-0.019,0.167,-0.031c0.051,-0.011,0.089,-0.021,0.115,-0.028l0,0.6c-0.037,0.017,-0.085,0.035,-0.144,0.052c-0.059,0.018,-0.122,0.033,-0.191,0.046c-0.068,0.015,-0.142,0.022,-0.217,0.03s-0.148,0.011,-0.221,0.011c-0.18,0,-0.347,-0.021,-0.5,-0.068c-0.153,-0.048,-0.286,-0.126,-0.397,-0.239c-0.111,-0.112,-0.198,-0.267,-0.263,-0.458c-0.063,-0.192,-0.095,-0.437,-0.095,-0.729L135.399,295.22l-0.674,0L134.725,294.868l0.673,-0.339l0.339,-0.999l0.456,0l0,1.096l1.199,0l0,0.596l-1.199,0l0,2.769c0,0.281,0.045,0.492,0.137,0.636C136.422,298.765,136.571,298.836,136.78,298.836z"/>
   <path fill="#8C8C8C"  d="M141.335,299.397l0,-3.073c0,-0.377,-0.076,-0.659,-0.228,-0.848c-0.152,-0.188,-0.391,-0.282,-0.715,-0.282c-0.234,0,-0.433,0.037,-0.592,0.111c-0.158,0.076,-0.286,0.188,-0.384,0.336c-0.097,0.148,-0.166,0.328,-0.208,0.544c-0.042,0.214,-0.063,0.461,-0.063,0.739l0,2.473l-0.791,0L138.354,292.634l0.791,0l0,2.008l-0.034,0.626l0.044,0c0.072,-0.124,0.158,-0.232,0.258,-0.323s0.209,-0.167,0.328,-0.229c0.118,-0.061,0.245,-0.104,0.378,-0.135c0.133,-0.027,0.27,-0.043,0.408,-0.043c0.531,0,0.93,0.139,1.198,0.416c0.268,0.275,0.401,0.719,0.401,1.326l0,3.117L141.335,299.397L141.335,299.397z"/>
  </g>
  <g >
   <path fill="#8C8C8C"  d="M163.095,299.381l-1.324,0L161.771,293.027l3.642,0l0,1.104l-2.316,0l0,1.639l2.156,0l0,1.1l-2.156,0L163.095,299.381L163.095,299.381z"/>
   <path fill="#8C8C8C"  d="M169.128,294.431c0.035,0,0.074,0.002,0.116,0.002c0.042,0.002,0.083,0.006,0.12,0.01c0.041,0.005,0.076,0.009,0.11,0.014c0.031,0.004,0.059,0.01,0.075,0.016l0,1.244c-0.022,-0.008,-0.056,-0.012,-0.095,-0.018c-0.04,-0.007,-0.083,-0.012,-0.128,-0.018c-0.045,-0.004,-0.09,-0.006,-0.133,-0.008c-0.044,-0.002,-0.08,-0.002,-0.108,-0.002c-0.171,0,-0.328,0.021,-0.472,0.064c-0.146,0.043,-0.269,0.113,-0.37,0.211s-0.183,0.225,-0.239,0.383c-0.057,0.157,-0.084,0.352,-0.084,0.581l0,2.474l-1.326,0L166.594,294.522l1.005,0l0.194,0.73l0.066,0c0.068,-0.125,0.145,-0.238,0.226,-0.34c0.081,-0.103,0.172,-0.189,0.272,-0.259c0.1,-0.071,0.212,-0.126,0.338,-0.165C168.821,294.451,168.967,294.431,169.128,294.431z"/>
   <path fill="#8C8C8C"  d="M170.446,293.266c0,-0.125,0.018,-0.228,0.056,-0.311c0.038,-0.084,0.089,-0.15,0.154,-0.2c0.065,-0.051,0.142,-0.086,0.229,-0.106c0.088,-0.02,0.184,-0.03,0.281,-0.03c0.099,0,0.191,0.01,0.277,0.03c0.088,0.02,0.164,0.055,0.229,0.106c0.066,0.05,0.117,0.116,0.156,0.2c0.04,0.083,0.059,0.186,0.059,0.311c0,0.122,-0.019,0.225,-0.059,0.309c-0.039,0.084,-0.09,0.151,-0.156,0.203c-0.063,0.05,-0.142,0.086,-0.229,0.108c-0.086,0.021,-0.18,0.032,-0.277,0.032c-0.099,0,-0.191,-0.012,-0.281,-0.032c-0.088,-0.021,-0.164,-0.059,-0.229,-0.108c-0.065,-0.051,-0.116,-0.119,-0.154,-0.203C170.465,293.491,170.446,293.388,170.446,293.266zM171.828,299.381l-1.325,0L170.503,294.522l1.325,0L171.828,299.381z"/>
   <path fill="#8C8C8C"  d="M175.237,298.412c0.13,0,0.254,-0.016,0.371,-0.045c0.117,-0.027,0.235,-0.064,0.357,-0.107l0,0.986c-0.124,0.063,-0.278,0.116,-0.463,0.157c-0.184,0.042,-0.385,0.063,-0.603,0.063c-0.211,0,-0.408,-0.024,-0.59,-0.073c-0.185,-0.05,-0.342,-0.137,-0.476,-0.259c-0.133,-0.123,-0.237,-0.288,-0.313,-0.495c-0.077,-0.208,-0.114,-0.468,-0.114,-0.781L173.406,295.517l-0.636,0L172.77,294.956l0.729,-0.443l0.383,-1.024l0.848,0l0,1.034l1.184,0l0,0.995l-1.184,0l0,2.343c0,0.188,0.048,0.327,0.141,0.417C174.964,298.367,175.086,298.412,175.237,298.412z"/>
   <path fill="#8C8C8C"  d="M180.11,299.381L176.537,299.381l0,-0.781l1.985,-3.064l-1.853,0L176.669,294.522l3.355,0l0,0.859l-1.92,2.985l2.004,0L180.11,299.381L180.11,299.381z"/>
   <path fill="#8C8C8C"  d="M181.049,293.266c0,-0.125,0.02,-0.228,0.057,-0.311c0.038,-0.084,0.09,-0.15,0.153,-0.2c0.065,-0.051,0.144,-0.086,0.23,-0.106s0.182,-0.03,0.28,-0.03c0.098,0,0.19,0.01,0.277,0.03c0.088,0.02,0.164,0.055,0.229,0.106c0.064,0.05,0.117,0.116,0.156,0.2c0.038,0.083,0.059,0.186,0.059,0.311c0,0.122,-0.021,0.225,-0.059,0.309c-0.039,0.084,-0.092,0.151,-0.156,0.203c-0.064,0.05,-0.143,0.086,-0.229,0.108c-0.086,0.021,-0.18,0.032,-0.277,0.032c-0.099,0,-0.192,-0.012,-0.28,-0.032c-0.088,-0.021,-0.165,-0.059,-0.23,-0.108c-0.063,-0.051,-0.115,-0.119,-0.153,-0.203C181.068,293.491,181.049,293.388,181.049,293.266zM182.431,299.381L181.107,299.381L181.107,294.522l1.324,0L182.431,299.381z"/>
   <path fill="#8C8C8C"  d="M188.081,299.381L186.757,299.381l0,-2.839c0,-0.351,-0.053,-0.613,-0.158,-0.787c-0.105,-0.176,-0.274,-0.265,-0.508,-0.265c-0.173,0,-0.317,0.035,-0.434,0.104c-0.116,0.07,-0.209,0.173,-0.276,0.31c-0.066,0.136,-0.115,0.304,-0.146,0.504c-0.029,0.2,-0.043,0.429,-0.043,0.687l0,2.286L183.867,299.381L183.867,294.522l1.012,0l0.181,0.621l0.073,0c0.069,-0.124,0.153,-0.23,0.253,-0.321c0.102,-0.089,0.21,-0.163,0.328,-0.221s0.245,-0.103,0.378,-0.128c0.136,-0.028,0.271,-0.043,0.409,-0.043c0.237,0,0.454,0.033,0.647,0.104c0.194,0.067,0.36,0.174,0.5,0.318c0.141,0.146,0.247,0.328,0.321,0.555c0.075,0.225,0.113,0.492,0.113,0.807l0,3.168L188.081,299.381L188.081,299.381z"/>
   <path fill="#8C8C8C"  d="M193.511,294.531l0,0.722l-0.708,0.221c0.059,0.1,0.1,0.201,0.122,0.308c0.021,0.106,0.033,0.22,0.033,0.343c0,0.246,-0.039,0.471,-0.116,0.676c-0.078,0.203,-0.193,0.379,-0.349,0.522c-0.152,0.146,-0.346,0.258,-0.578,0.337c-0.23,0.08,-0.5,0.119,-0.808,0.119c-0.067,0,-0.141,-0.003,-0.218,-0.012c-0.078,-0.007,-0.137,-0.015,-0.175,-0.021c-0.057,0.049,-0.104,0.101,-0.137,0.152c-0.033,0.054,-0.049,0.117,-0.049,0.193c0,0.061,0.018,0.108,0.056,0.146s0.087,0.065,0.147,0.087c0.06,0.022,0.133,0.036,0.214,0.044s0.165,0.012,0.251,0.012l0.756,0c0.236,0,0.446,0.025,0.631,0.081c0.186,0.055,0.342,0.135,0.472,0.246c0.129,0.109,0.229,0.249,0.299,0.419c0.069,0.169,0.104,0.372,0.104,0.605c0,0.275,-0.054,0.523,-0.164,0.745c-0.109,0.224,-0.274,0.41,-0.494,0.565c-0.219,0.154,-0.488,0.273,-0.813,0.355c-0.324,0.082,-0.699,0.123,-1.126,0.123c-0.329,0,-0.618,-0.031,-0.864,-0.094c-0.247,-0.063,-0.451,-0.15,-0.617,-0.27c-0.165,-0.116,-0.288,-0.258,-0.371,-0.424c-0.084,-0.164,-0.125,-0.353,-0.125,-0.561c0,-0.177,0.031,-0.33,0.093,-0.46c0.061,-0.131,0.143,-0.243,0.243,-0.336c0.102,-0.093,0.218,-0.168,0.347,-0.227c0.129,-0.058,0.262,-0.103,0.396,-0.134c-0.061,-0.026,-0.12,-0.063,-0.181,-0.109c-0.059,-0.047,-0.113,-0.1,-0.161,-0.159c-0.047,-0.063,-0.086,-0.129,-0.116,-0.203c-0.031,-0.072,-0.047,-0.15,-0.047,-0.23c0,-0.093,0.015,-0.178,0.04,-0.252c0.029,-0.076,0.068,-0.146,0.12,-0.212c0.052,-0.064,0.117,-0.126,0.196,-0.184c0.078,-0.06,0.166,-0.117,0.264,-0.18c-0.254,-0.11,-0.456,-0.287,-0.604,-0.53c-0.15,-0.244,-0.225,-0.529,-0.225,-0.859c0,-0.26,0.04,-0.494,0.121,-0.699c0.081,-0.207,0.2,-0.381,0.356,-0.523c0.155,-0.144,0.35,-0.252,0.582,-0.328c0.231,-0.076,0.499,-0.113,0.801,-0.113c0.057,0,0.122,0.004,0.194,0.012s0.145,0.018,0.216,0.025c0.07,0.01,0.137,0.021,0.196,0.033c0.061,0.01,0.109,0.021,0.146,0.029L193.511,294.531L193.511,294.531zM190.034,300.068c0,0.073,0.017,0.145,0.047,0.211c0.03,0.068,0.08,0.129,0.15,0.182c0.068,0.052,0.16,0.094,0.272,0.124c0.113,0.03,0.252,0.046,0.417,0.046c0.452,0,0.792,-0.063,1.021,-0.191c0.229,-0.127,0.343,-0.298,0.343,-0.514c0,-0.183,-0.07,-0.304,-0.213,-0.364c-0.143,-0.06,-0.361,-0.091,-0.66,-0.091l-0.613,0c-0.077,0,-0.162,0.009,-0.252,0.027c-0.09,0.018,-0.172,0.052,-0.248,0.099c-0.075,0.046,-0.139,0.108,-0.188,0.184S190.034,299.953,190.034,300.068zM190.513,296.113c0,0.263,0.049,0.468,0.147,0.612c0.098,0.146,0.248,0.217,0.447,0.217c0.209,0,0.358,-0.07,0.451,-0.217c0.094,-0.145,0.14,-0.35,0.14,-0.612c0,-0.261,-0.046,-0.468,-0.137,-0.622c-0.092,-0.152,-0.243,-0.229,-0.454,-0.229C190.71,295.261,190.513,295.544,190.513,296.113z"/>
   <path fill="#8C8C8C"  d="M194.261,298.76c0,-0.136,0.02,-0.251,0.059,-0.346c0.04,-0.095,0.094,-0.172,0.163,-0.229c0.069,-0.058,0.149,-0.101,0.244,-0.126c0.092,-0.026,0.191,-0.039,0.299,-0.039c0.102,0,0.198,0.013,0.289,0.039c0.092,0.025,0.172,0.068,0.242,0.126c0.068,0.057,0.123,0.134,0.163,0.229c0.041,0.095,0.062,0.21,0.062,0.346c0,0.13,-0.021,0.242,-0.062,0.335c-0.04,0.093,-0.095,0.17,-0.163,0.229c-0.07,0.062,-0.15,0.104,-0.242,0.133c-0.091,0.027,-0.188,0.042,-0.289,0.042c-0.106,0,-0.207,-0.015,-0.299,-0.042c-0.095,-0.027,-0.175,-0.071,-0.244,-0.133c-0.069,-0.061,-0.123,-0.138,-0.163,-0.229C194.279,299.002,194.261,298.89,194.261,298.76z"/>
   <path fill="#8C8C8C"  d="M201.22,296.942c0,0.406,-0.052,0.767,-0.153,1.079c-0.104,0.313,-0.251,0.576,-0.443,0.79c-0.192,0.215,-0.428,0.378,-0.704,0.489c-0.277,0.111,-0.587,0.167,-0.933,0.167c-0.321,0,-0.617,-0.056,-0.886,-0.167c-0.271,-0.112,-0.503,-0.274,-0.698,-0.489c-0.195,-0.214,-0.35,-0.479,-0.458,-0.79c-0.11,-0.313,-0.165,-0.673,-0.165,-1.079c0,-0.402,0.051,-0.76,0.154,-1.072c0.103,-0.314,0.25,-0.576,0.442,-0.789C197.568,294.867,197.802,294.706,198.077,294.597s0.587,-0.164,0.937,-0.164c0.319,0,0.615,0.055,0.886,0.164c0.27,0.111,0.502,0.271,0.695,0.484c0.197,0.213,0.351,0.477,0.459,0.789C201.164,296.182,201.22,296.54,201.22,296.942zM198.134,296.942c0,0.484,0.068,0.851,0.205,1.093c0.137,0.246,0.357,0.368,0.664,0.368c0.306,0,0.524,-0.123,0.66,-0.37c0.137,-0.245,0.205,-0.608,0.205,-1.091s-0.068,-0.846,-0.205,-1.084c-0.136,-0.238,-0.358,-0.357,-0.668,-0.357c-0.305,0,-0.523,0.119,-0.659,0.357C198.201,296.097,198.134,296.46,198.134,296.942z"/>
   <path fill="#8C8C8C"  d="M204.94,294.431c0.035,0,0.073,0.002,0.115,0.002c0.042,0.002,0.083,0.006,0.12,0.01c0.04,0.005,0.076,0.009,0.109,0.014c0.033,0.004,0.059,0.01,0.076,0.016l0,1.244c-0.023,-0.008,-0.055,-0.012,-0.095,-0.018c-0.041,-0.007,-0.083,-0.012,-0.13,-0.018c-0.045,-0.004,-0.089,-0.006,-0.132,-0.008c-0.045,-0.002,-0.08,-0.002,-0.108,-0.002c-0.171,0,-0.328,0.021,-0.473,0.064c-0.144,0.043,-0.267,0.113,-0.37,0.211c-0.102,0.098,-0.182,0.225,-0.237,0.383c-0.058,0.157,-0.084,0.352,-0.084,0.581l0,2.474l-1.326,0L202.405,294.522l1.004,0l0.195,0.73l0.065,0c0.068,-0.125,0.146,-0.238,0.226,-0.34c0.081,-0.103,0.172,-0.189,0.271,-0.259c0.101,-0.071,0.213,-0.126,0.339,-0.165C204.634,294.451,204.778,294.431,204.94,294.431z"/>
   <path fill="#8C8C8C"  d="M210.248,294.531l0,0.722l-0.708,0.221c0.058,0.1,0.099,0.201,0.121,0.308s0.034,0.22,0.034,0.343c0,0.246,-0.039,0.471,-0.116,0.676c-0.079,0.203,-0.194,0.379,-0.349,0.522c-0.153,0.146,-0.348,0.258,-0.578,0.337c-0.232,0.08,-0.501,0.119,-0.809,0.119c-0.067,0,-0.141,-0.003,-0.219,-0.012c-0.078,-0.007,-0.135,-0.015,-0.173,-0.021c-0.058,0.049,-0.104,0.101,-0.137,0.152c-0.034,0.054,-0.05,0.117,-0.05,0.193c0,0.061,0.019,0.108,0.057,0.146c0.037,0.037,0.086,0.065,0.146,0.087c0.062,0.021,0.133,0.036,0.215,0.044c0.08,0.008,0.164,0.012,0.251,0.012l0.756,0c0.234,0,0.445,0.025,0.63,0.081c0.186,0.055,0.343,0.135,0.472,0.246c0.129,0.109,0.229,0.249,0.298,0.419c0.07,0.169,0.104,0.372,0.104,0.605c0,0.275,-0.054,0.523,-0.165,0.745c-0.109,0.224,-0.275,0.41,-0.493,0.565c-0.219,0.154,-0.489,0.273,-0.815,0.355c-0.323,0.082,-0.698,0.123,-1.125,0.123c-0.329,0,-0.617,-0.031,-0.864,-0.094c-0.246,-0.063,-0.451,-0.15,-0.617,-0.27c-0.164,-0.116,-0.287,-0.258,-0.371,-0.424c-0.083,-0.164,-0.124,-0.353,-0.124,-0.561c0,-0.177,0.03,-0.33,0.091,-0.46c0.063,-0.131,0.144,-0.243,0.244,-0.336c0.103,-0.093,0.217,-0.168,0.346,-0.227c0.129,-0.058,0.263,-0.103,0.398,-0.134c-0.062,-0.026,-0.121,-0.063,-0.182,-0.109c-0.06,-0.047,-0.113,-0.1,-0.16,-0.159c-0.047,-0.063,-0.087,-0.129,-0.117,-0.203c-0.03,-0.073,-0.045,-0.151,-0.045,-0.231c0,-0.093,0.014,-0.178,0.04,-0.252c0.027,-0.076,0.067,-0.146,0.12,-0.212c0.051,-0.064,0.117,-0.126,0.194,-0.184c0.078,-0.06,0.166,-0.117,0.266,-0.18c-0.255,-0.109,-0.456,-0.287,-0.606,-0.529c-0.148,-0.244,-0.223,-0.531,-0.223,-0.861c0,-0.26,0.039,-0.493,0.121,-0.698c0.081,-0.207,0.199,-0.382,0.354,-0.524c0.156,-0.143,0.351,-0.252,0.583,-0.328c0.231,-0.074,0.499,-0.111,0.8,-0.111c0.059,0,0.123,0.003,0.195,0.011s0.146,0.017,0.215,0.026c0.072,0.009,0.138,0.021,0.198,0.031c0.062,0.012,0.108,0.021,0.145,0.03L210.248,294.53L210.248,294.531zM206.772,300.068c0,0.073,0.017,0.145,0.046,0.211c0.031,0.068,0.081,0.129,0.149,0.182c0.07,0.052,0.161,0.094,0.273,0.124c0.114,0.03,0.252,0.046,0.418,0.046c0.451,0,0.792,-0.063,1.021,-0.191c0.229,-0.127,0.343,-0.298,0.343,-0.514c0,-0.183,-0.071,-0.304,-0.214,-0.364s-0.361,-0.091,-0.66,-0.091l-0.612,0c-0.079,0,-0.163,0.009,-0.252,0.027c-0.09,0.019,-0.173,0.052,-0.248,0.099c-0.076,0.046,-0.139,0.108,-0.188,0.184C206.798,299.855,206.772,299.953,206.772,300.068zM207.249,296.113c0,0.263,0.049,0.468,0.148,0.612c0.099,0.146,0.248,0.217,0.447,0.217c0.209,0,0.358,-0.07,0.451,-0.217c0.094,-0.145,0.141,-0.35,0.141,-0.612c0,-0.261,-0.046,-0.468,-0.138,-0.622c-0.092,-0.152,-0.243,-0.229,-0.454,-0.229C207.447,295.261,207.249,295.544,207.249,296.113z"/>
  </g>
  <g >
   <path fill="#8C8C8C"  d="M155.842,291.651l-8.146,0c-0.532,0,-0.965,0.432,-0.965,0.964l0,8.146c0,0.531,0.433,0.964,0.965,0.964l5.55,0l3.557,-3.558L156.803,292.615C156.806,292.082,156.374,291.651,155.842,291.651zM154.165,295.38l-1.075,0l0,0.401l1.075,0l0,1.601l-2.196,0l0,2.058l-2.572,0l0,-4.67l0.988,-0.99l3.779,0l0,1.603l0.001,0L154.165,295.38z"/>
  </g>
 </g>
 <g partID="56060">
  <g transform="translate(0,70.5035)">
   <g  id="breadboardbreadboard">
    <g >
     <g >
      <path fill="#0F7391"  d="M205.978,35.918L205.978,3.694L201.992,0L22.703,0l0,148.032L205.98,148.032l0,-5.033l6.924,-7.135L212.904,42.507L205.978,35.918zM61.179,10.87c-2.524,0,-4.574,-2.049,-4.574,-4.574s2.05,-4.574,4.574,-4.574c2.525,0,4.574,2.049,4.574,4.574S63.704,10.87,61.179,10.87zM206.23,45.819c1.621,0,2.937,1.317,2.937,2.938c0,1.623,-1.313,2.936,-2.937,2.936s-2.938,-1.313,-2.938,-2.936C203.292,47.137,204.607,45.819,206.23,45.819zM206.732,130.747c-2.362,0,-4.277,-1.916,-4.277,-4.275c0,-2.367,1.915,-4.281,4.277,-4.281c2.365,0,4.276,1.914,4.276,4.281C211.011,128.831,209.097,130.747,206.732,130.747z"/>
      <circle fill="#0F7391" cx="55.232"  cy="142.952" r="3.199"/>
     </g>
    </g>
    <path fill="#02809E"  d="M100.371,68.774c0,-1.004,-0.736,-1.831,-1.697,-1.984l0,-0.029l-6.86,0c-1.111,0,-2.014,0.901,-2.014,2.014c0,1.112,0.901,2.015,2.014,2.015l6.86,0l0,-0.032C99.633,70.605,100.371,69.78,100.371,68.774z"/>
    <path fill="#02809E"  d="M100.371,62.721c0,-1.003,-0.736,-1.829,-1.697,-1.982l0,-0.031l-6.86,0c-1.111,0,-2.014,0.903,-2.014,2.014c0,1.114,0.901,2.015,2.014,2.015l6.86,0l0,-0.031C99.633,64.553,100.371,63.725,100.371,62.721z"/>
    <path fill="#02809E"  d="M100.371,56.669c0,-1.005,-0.736,-1.831,-1.697,-1.984l0,-0.031l-6.86,0c-1.111,0,-2.014,0.903,-2.014,2.015c0,1.112,0.901,2.014,2.014,2.014l6.86,0l0,-0.031C99.633,58.499,100.371,57.673,100.371,56.669z"/>
    <path fill="#02809E"  d="M127.829,63.88c0,-1.005,-0.736,-1.83,-1.699,-1.982l0,-0.031l-6.858,0c-1.11,0,-2.015,0.9,-2.015,2.013c0,1.113,0.902,2.014,2.015,2.014l6.858,0l0,-0.031C127.09,65.711,127.829,64.885,127.829,63.88z"/>
    <path fill="#02809E"  d="M89.918,75.922c0,-3.033,-2.229,-5.529,-5.133,-5.989l0,-0.094L67.263,69.839c-3.358,0,-6.082,2.723,-6.082,6.083c0,3.359,2.724,6.082,6.082,6.082l17.522,0l0,-0.094C87.69,81.45,89.918,78.954,89.918,75.922z"/>
    <path fill="#02809E"  d="M142.429,63.88c0,-1.005,-0.735,-1.83,-1.696,-1.982l0,-0.031l-6.859,0c-1.111,0,-2.015,0.9,-2.015,2.013c0,1.113,0.901,2.014,2.015,2.014l6.859,0l0,-0.031C141.692,65.711,142.429,64.885,142.429,63.88z"/>
    <path fill="#02809E"  d="M159.886,63.88c0,-1.005,-0.735,-1.83,-1.696,-1.982l0,-0.031l-6.859,0c-1.113,0,-2.016,0.9,-2.016,2.013c0,1.113,0.9,2.014,2.016,2.014l6.858,0l0,-0.031C159.149,65.711,159.886,64.885,159.886,63.88z"/>
    <path fill="#02809E"  d="M159.886,71.619c0,-1.005,-0.735,-1.831,-1.696,-1.983l0,-0.031l-6.859,0c-1.113,0,-2.016,0.901,-2.016,2.014c0,1.113,0.9,2.014,2.016,2.014l6.858,0l0,-0.031C159.149,73.45,159.886,72.624,159.886,71.619z"/>
    <path fill="#02809E"  d="M159.886,79.357c0,-1.005,-0.735,-1.831,-1.696,-1.981l0,-0.03l-6.859,0c-1.113,0,-2.016,0.899,-2.016,2.014s0.9,2.017,2.016,2.017l6.858,0L158.189,81.34C159.149,81.188,159.886,80.362,159.886,79.357z"/>
    <path fill="#02809E"  d="M35.12,3.066c0,-1.004,-0.734,-1.831,-1.697,-1.982L33.423,1.053l-6.858,0c-1.11,0,-2.015,0.901,-2.015,2.014c0,1.113,0.902,2.014,2.015,2.014l6.858,0L33.423,5.05C34.383,4.897,35.12,4.07,35.12,3.066z"/>
    <path fill="#02809E"  d="M35.12,15.543c0,-1.004,-0.734,-1.83,-1.697,-1.982l0,-0.029l-6.858,0c-1.11,0,-2.015,0.9,-2.015,2.012c0,1.113,0.902,2.018,2.015,2.018l6.858,0L33.423,17.53C34.383,17.375,35.12,16.547,35.12,15.543z"/>
    <path fill="#02809E"  d="M38.893,3.066c0,-1.004,0.734,-1.831,1.697,-1.982L40.59,1.053l6.857,0c1.111,0,2.014,0.901,2.014,2.014c0,1.113,-0.9,2.014,-2.014,2.014L40.59,5.081L40.59,5.05C39.629,4.897,38.893,4.07,38.893,3.066z"/>
    <path fill="#02809E"  d="M38.893,15.543c0,-1.004,0.734,-1.83,1.697,-1.982l0,-0.029l6.857,0c1.111,0,2.014,0.9,2.014,2.012c0,1.113,-0.9,2.018,-2.014,2.018L40.59,17.562L40.59,17.53C39.629,17.375,38.893,16.547,38.893,15.543z"/>
    <path fill="#02809E"  d="M100.371,80.879c0,-1.004,-0.736,-1.828,-1.697,-1.98l0,-0.031l-6.86,0c-1.111,0,-2.014,0.9,-2.014,2.014c0,1.115,0.901,2.018,2.014,2.018l6.86,0l0,-0.033C99.633,82.711,100.371,81.887,100.371,80.879z"/>
    <path fill="#02809E"  d="M100.371,26.401c0,-1.004,-0.736,-1.829,-1.697,-1.981l0,-0.033l-6.86,0c-1.111,0,-2.014,0.901,-2.014,2.014c0,1.113,0.901,2.016,2.014,2.016l6.86,0l0,-0.034C99.633,28.231,100.371,27.407,100.371,26.401z"/>
    <path fill="#02809E"  d="M63.397,35.401c0,-1.004,-0.735,-1.829,-1.696,-1.981l0,-0.032l-6.86,0c-1.112,0,-2.015,0.901,-2.015,2.013c0,1.112,0.901,2.017,2.015,2.017L61.7,37.418l0,-0.034C62.659,37.232,63.397,36.408,63.397,35.401z"/>
    <path fill="#02809E"  d="M79.675,21.901c0,-1.004,-0.737,-1.829,-1.698,-1.981l0,-0.032l-6.858,0c-1.112,0,-2.016,0.901,-2.016,2.013c0,1.112,0.902,2.017,2.016,2.017l6.858,0l0,-0.034C78.937,23.732,79.675,22.908,79.675,21.901z"/>
    <path fill="#02809E"  d="M100.371,38.508c0,-1.004,-0.736,-1.829,-1.697,-1.982l0,-0.031l-6.86,0c-1.111,0,-2.014,0.901,-2.014,2.014c0,1.113,0.901,2.015,2.014,2.015l6.86,0l0,-0.031C99.633,40.338,100.371,39.513,100.371,38.508z"/>
    <path fill="#02809E"  d="M76.38,100.67c0,-1.004,-0.735,-1.83,-1.697,-1.98l0,-0.033l-6.859,0c-1.113,0,-2.015,0.902,-2.015,2.014c0,1.113,0.9,2.018,2.015,2.018l6.858,0l0,-0.031C75.643,102.5,76.38,101.674,76.38,100.67z"/>
    <path fill="#02809E"  d="M76.38,92.392c0,-1.005,-0.735,-1.829,-1.697,-1.981l0,-0.031l-6.859,0c-1.113,0,-2.015,0.9,-2.015,2.015s0.9,2.017,2.015,2.017l6.858,0l0,-0.031C75.643,94.223,76.38,93.397,76.38,92.392z"/>
    <path fill="#02809E"  d="M167.086,47.197c0,1.005,0.736,1.832,1.699,1.984l0,0.029l6.858,0c1.11,0,2.015,-0.9,2.015,-2.013c0,-1.111,-0.902,-2.014,-2.015,-2.014l-6.858,0l0,0.031C167.825,45.367,167.086,46.194,167.086,47.197z"/>
    <path fill="#02809E"  d="M56.571,94.258c0,-1.004,-0.736,-1.832,-1.698,-1.982l0,-0.033l-6.859,0c-1.114,0,-2.016,0.901,-2.016,2.019c0,1.108,0.9,2.014,2.016,2.014l6.858,0l0,-0.03C55.832,96.088,56.571,95.262,56.571,94.258z"/>
    <path fill="#02809E"  d="M56.571,100.805c0,-1.006,-0.736,-1.83,-1.698,-1.984l0,-0.029l-6.859,0c-1.114,0,-2.016,0.898,-2.016,2.016c0,1.107,0.9,2.014,2.016,2.014l6.858,0l0,-0.029C55.832,102.631,56.571,101.808,56.571,100.805z"/>
    <path fill="#02809E"  d="M56.571,107.35c0,-1.005,-0.736,-1.83,-1.698,-1.982l0,-0.031l-6.859,0c-1.114,0,-2.016,0.902,-2.016,2.016s0.9,2.016,2.016,2.016l6.858,0l0,-0.031C55.832,109.181,56.571,108.356,56.571,107.35z"/>
    <rect width="20.308" x="29.884" y="90.799" fill="#02809E"  height="19.303"/>
    <rect width="5.036" x="26.36" y="93.149" fill="#02809E"  height="14.602"/>
    <circle fill="#02809E" cx="74.819"  cy="6.078" r="1.762"/>
    <g >
     <g >
      <path fill="#02809E"  d="M74.819,1.633c-2.457,0,-4.448,1.991,-4.448,4.446c0,2.458,1.991,4.447,4.448,4.447c2.456,0,4.448,-1.99,4.448,-4.447C79.266,3.623,77.275,1.633,74.819,1.633zM74.819,10.064c-2.202,0,-3.986,-1.785,-3.986,-3.986c0,-2.201,1.785,-3.986,3.986,-3.986c2.202,0,3.985,1.785,3.985,3.986C78.804,8.28,77.02,10.064,74.819,10.064z"/>
     </g>
    </g>
    <circle fill="#02809E" cx="28.963"  cy="141.398" r="1.763"/>
    <g >
     <g >
      <path fill="#02809E"  d="M28.964,136.952c-2.457,0,-4.45,1.992,-4.45,4.447c0,2.457,1.993,4.447,4.45,4.447c2.454,0,4.447,-1.99,4.447,-4.447C33.411,138.944,31.42,136.952,28.964,136.952zM28.964,145.383c-2.204,0,-3.987,-1.783,-3.987,-3.984s1.785,-3.986,3.987,-3.986c2.201,0,3.984,1.784,3.984,3.986C32.949,143.6,31.165,145.383,28.964,145.383z"/>
     </g>
    </g>
    <circle fill="#02809E" cx="197.025"  cy="31.557" r="1.762"/>
    <g >
     <g >
      <path fill="#02809E"  d="M197.026,27.108c-2.456,0,-4.449,1.993,-4.449,4.449c0,2.455,1.993,4.444,4.449,4.444c2.453,0,4.448,-1.99,4.448,-4.444C201.473,29.101,199.481,27.108,197.026,27.108zM197.026,35.541c-2.204,0,-3.984,-1.785,-3.984,-3.984c0,-2.204,1.785,-3.987,3.984,-3.987c2.2,0,3.982,1.784,3.982,3.987C201.008,33.757,199.226,35.541,197.026,35.541z"/>
     </g>
    </g>
    <circle fill="#02809E" cx="30.304"  cy="24.842" r="4.28"/>
    <circle fill="#02809E" cx="30.304"  cy="59.583" r="4.28"/>
    <rect width="17.538" x="70.131" y="136.333" fill="#02809E"  height="7.974"/>
    <rect width="16.162" x="140.282" y="33.329" fill="#02809E"  height="9.348"/>
    <rect width="96.841" x="101.213" y="92.522" fill="#02809E"  height="21.482"/>
    <circle fill="#02809E" cx="52.584"  cy="125.919" r="5.665"/>
    <circle fill="#02809E" cx="45.199"  cy="139.682" r="5.664"/>
    <path fill="#02809E"  d="M78.823,129.31c0.432,-1.115,0.675,-2.319,0.675,-3.585c0,-5.491,-4.453,-9.941,-9.942,-9.941c-5.489,0,-9.943,4.451,-9.943,9.941c0,2.574,0.986,4.913,2.593,6.678L78.823,129.31z"/>
    <path fill="#02809E"  d="M102.034,129.31c0.432,-1.115,0.674,-2.319,0.674,-3.585c0,-5.491,-4.453,-9.941,-9.941,-9.941c-5.493,0,-9.942,4.451,-9.942,9.941c0,2.574,0.985,4.913,2.592,6.678L102.034,129.31z"/>
    <path fill="#8D8C8C"  d="M100.371,44.561c0,-1.004,-0.736,-1.829,-1.697,-1.982l0,-0.031l-6.86,0c-1.111,0,-2.014,0.901,-2.014,2.013s0.901,2.015,2.014,2.015l6.86,0l0,-0.032C99.633,46.392,100.371,45.567,100.371,44.561z"/>
    <rect width="3.648" x="93.323" y="42.925" fill="#FBBE0E"  height="3.21"/>
    <path fill="#8D8C8C"  d="M100.371,32.455c0,-1.004,-0.736,-1.829,-1.697,-1.982l0,-0.031l-6.86,0c-1.111,0,-2.014,0.901,-2.014,2.014c0,1.113,0.901,2.015,2.014,2.015l6.86,0l0,-0.032C99.633,34.286,100.371,33.46,100.371,32.455z"/>
    <rect width="3.648" x="93.323" y="30.819" fill="#FBBE0E"  height="3.21"/>
    <path fill="#8D8C8C"  d="M190.522,47.197c0,-1.004,-0.736,-1.83,-1.697,-1.981l0,-0.032l-6.859,0c-1.112,0,-2.014,0.901,-2.014,2.014c0,1.112,0.899,2.015,2.014,2.015l6.859,0l0,-0.032C189.782,49.026,190.522,48.2,190.522,47.197z"/>
    <rect width="3.648" x="183.473" y="45.561" fill="#FBBE0E"  height="3.21"/>
    <path fill="#8D8C8C"  d="M100.371,50.615c0,-1.004,-0.736,-1.83,-1.697,-1.983l0,-0.031l-6.86,0c-1.111,0,-2.014,0.903,-2.014,2.014c0,1.113,0.901,2.015,2.014,2.015l6.86,0l0,-0.032C99.633,52.446,100.371,51.62,100.371,50.615z"/>
    <rect width="3.648" x="93.323" y="48.978" fill="#FBBE0E"  height="3.21"/>
    <rect width="16.614" x="29.013" y="0.746" fill="#8D8C8C"  height="16.991"/>
    <path fill="#404040"  d="M45.252,3.136c0,0.835,-0.678,1.513,-1.515,1.513c-0.834,0,-1.512,-0.675,-1.512,-1.513c0,-0.832,0.675,-1.513,1.512,-1.513C44.575,1.626,45.252,2.305,45.252,3.136z"/>
    <path fill="#404040"  d="M32.538,3.136c0,0.835,-0.677,1.513,-1.513,1.513c-0.837,0,-1.513,-0.675,-1.513,-1.513c0,-0.832,0.675,-1.513,1.513,-1.513C31.862,1.626,32.538,2.305,32.538,3.136z"/>
    <circle fill="#404040" cx="31.027"  cy="15.851" r="1.511"/>
    <circle fill="#404040" cx="43.741"  cy="15.851" r="1.511"/>
    <circle fill="#404040" cx="37.006"  cy="9.242" r="4.909"/>
    <polygon fill="#404040" points="208.374,59.78,204.441,59.78,201.1,59.78,197.167,59.78,195.657,61.289,195.657,65.223,197.167,66.732,201.1,66.732,204.441,66.732,208.374,66.732,209.885,65.223,209.885,61.289" />
    <polygon fill="#404040" points="208.374,66.961,204.441,66.961,201.1,66.961,197.167,66.961,195.657,68.471,195.657,72.403,197.167,73.915,201.1,73.915,204.441,73.915,208.374,73.915,209.885,72.403,209.885,68.471" />
    <polygon fill="#404040" points="208.374,74.14,204.441,74.14,201.1,74.14,197.167,74.14,195.657,75.651,195.657,79.584,197.167,81.094,201.1,81.094,204.441,81.094,208.374,81.094,209.885,79.584,209.885,75.651" />
    <polygon fill="#404040" points="208.374,59.78,204.441,59.78,201.1,59.78,197.167,59.78,195.657,61.289,195.657,65.223,197.167,66.732,201.1,66.732,204.441,66.732,208.374,66.732,209.885,65.223,209.885,61.289" />
    <polygon fill="#404040" points="208.374,66.961,204.441,66.961,201.1,66.961,197.167,66.961,195.657,68.471,195.657,72.403,197.167,73.915,201.1,73.915,204.441,73.915,208.374,73.915,209.885,72.403,209.885,68.471" />
    <polygon fill="#404040" points="208.374,74.14,204.441,74.14,201.1,74.14,197.167,74.14,195.657,75.651,195.657,79.584,197.167,81.094,201.1,81.094,204.441,81.094,208.374,81.094,209.885,79.584,209.885,75.651" />
    <rect width="2.298" x="198.065" y="76.334" fill="#8D8C8C"  height="2.299"/>
    <rect width="2.297" x="205.264" y="76.334" fill="#8D8C8C"  height="2.299"/>
    <rect width="2.298" x="198.065" y="69.136" fill="#8D8C8C"  height="2.298"/>
    <rect width="2.297" x="205.264" y="69.136" fill="#8D8C8C"  height="2.298"/>
    <rect width="2.298" x="198.065" y="61.937" fill="#8D8C8C"  height="2.298"/>
    <rect width="2.297" x="205.264" y="61.937" fill="#8D8455"  height="2.298"/>
    <rect width="1.182" x="205.823" y="62.495" fill="#8C8663"  height="1.182"/>
    <polygon fill="#B8AF82" points="205.264,61.937,205.823,62.495,207.002,62.495,207.562,61.937" />
    <polygon fill="#80795B" points="207.002,63.677,207.002,62.495,207.562,61.937,207.562,64.235" />
    <polygon fill="#5E5B43" points="205.823,63.677,207.002,63.677,207.562,64.235,205.264,64.235" />
    <polygon fill="#9A916C" points="205.264,61.937,205.823,62.495,205.823,63.677,205.264,64.235" />
    <rect width="1.182" x="198.624" y="62.495" fill="#8C8663"  height="1.182"/>
    <polygon fill="#B8AF82" points="198.065,61.937,198.624,62.495,199.804,62.495,200.363,61.937" />
    <polygon fill="#80795B" points="199.804,63.677,199.804,62.495,200.363,61.937,200.363,64.235" />
    <polygon fill="#5E5B43" points="198.624,63.677,199.804,63.677,200.363,64.235,198.065,64.235" />
    <polygon fill="#9A916C" points="198.065,61.937,198.624,62.495,198.624,63.677,198.065,64.235" />
    <rect width="1.182" x="205.823" y="69.693" fill="#8C8663"  height="1.182"/>
    <polygon fill="#B8AF82" points="205.264,69.136,205.823,69.693,207.002,69.693,207.562,69.136" />
    <polygon fill="#80795B" points="207.002,70.875,207.002,69.693,207.562,69.136,207.562,71.434" />
    <polygon fill="#5E5B43" points="205.823,70.875,207.002,70.875,207.562,71.434,205.264,71.434" />
    <polygon fill="#9A916C" points="205.264,69.136,205.823,69.693,205.823,70.875,205.264,71.434" />
    <rect width="1.182" x="198.624" y="69.693" fill="#8C8663"  height="1.182"/>
    <polygon fill="#B8AF82" points="198.065,69.136,198.624,69.693,199.804,69.693,200.363,69.136" />
    <polygon fill="#80795B" points="199.804,70.875,199.804,69.693,200.363,69.136,200.363,71.434" />
    <polygon fill="#5E5B43" points="198.624,70.875,199.804,70.875,200.363,71.434,198.065,71.434" />
    <polygon fill="#9A916C" points="198.065,69.136,198.624,69.693,198.624,70.875,198.065,71.434" />
    <rect width="1.182" x="205.823" y="76.892" fill="#8C8663"  height="1.183"/>
    <polygon fill="#B8AF82" points="205.264,76.334,205.823,76.892,207.002,76.892,207.562,76.334" />
    <polygon fill="#80795B" points="207.002,78.075,207.002,76.892,207.562,76.334,207.562,78.633" />
    <polygon fill="#5E5B43" points="205.823,78.075,207.002,78.075,207.562,78.633,205.264,78.633" />
    <polygon fill="#9A916C" points="205.264,76.334,205.823,76.892,205.823,78.075,205.264,78.633" />
    <rect width="1.182" x="198.624" y="76.892" fill="#8C8663"  height="1.183"/>
    <polygon fill="#B8AF82" points="198.065,76.334,198.624,76.892,199.804,76.892,200.363,76.334" />
    <polygon fill="#80795B" points="199.804,78.075,199.804,76.892,200.363,76.334,200.363,78.633" />
    <polygon fill="#5E5B43" points="198.624,78.075,199.804,78.075,200.363,78.633,198.065,78.633" />
    <polygon fill="#9A916C" points="198.065,76.334,198.624,76.892,198.624,78.075,198.065,78.633" />
    <rect width="37.929" x="0.01" y="25.387" fill="#676666"  height="33.902"/>
    <rect width="8.056" x="37.94" y="25.387" fill="#676666"  height="33.902"/>
    <rect width="37.261" x="15.114" y="115.471"  height="23.83"/>
    <rect width="7.722" x="14.78" y="114.129"  height="26.182"/>
    <rect width="7.18" x="66.044" y="1.908" fill="#404040"  height="7.178"/>
    <rect width="2.774" x="68.248" y="4.11"  height="2.773"/>
    <polygon fill="#2A2A29" points="67.225,3.087,68.248,4.11,71.021,4.11,72.042,3.087" />
    <polygon fill="#474747" points="72.043,3.087,71.021,4.113,71.021,6.885,72.043,7.906" />
    <polygon fill="#595959" points="72.042,7.906,71.021,6.885,68.247,6.885,67.225,7.906" />
    <polygon fill="#373737" points="67.224,7.906,68.247,6.883,68.247,4.11,67.224,3.087" />
    <rect width="7.177" x="73.223" y="1.908" fill="#404040"  height="7.178"/>
    <rect width="2.772" x="75.425" y="4.11"  height="2.773"/>
    <polygon fill="#2A2A29" points="74.401,3.087,75.424,4.11,78.198,4.11,79.221,3.087" />
    <polygon fill="#474747" points="79.221,3.087,78.198,4.113,78.198,6.885,79.221,7.906" />
    <polygon fill="#595959" points="79.219,7.906,78.198,6.885,75.424,6.885,74.401,7.906" />
    <polygon fill="#373737" points="74.4,7.906,75.424,6.883,75.424,4.11,74.4,3.087" />
    <rect width="7.18" x="80.445" y="1.908" fill="#404040"  height="7.178"/>
    <rect width="2.774" x="82.648" y="4.11"  height="2.773"/>
    <polygon fill="#2A2A29" points="81.625,3.087,82.648,4.11,85.421,4.11,86.443,3.087" />
    <polygon fill="#474747" points="86.444,3.087,85.421,4.113,85.421,6.885,86.444,7.906" />
    <polygon fill="#595959" points="86.443,7.906,85.421,6.885,82.647,6.885,81.625,7.906" />
    <polygon fill="#373737" points="81.624,7.906,82.647,6.883,82.647,4.11,81.624,3.087" />
    <rect width="7.177" x="87.623" y="1.908" fill="#404040"  height="7.178"/>
    <rect width="2.772" x="89.825" y="4.11"  height="2.773"/>
    <polygon fill="#2A2A29" points="88.802,3.087,89.824,4.11,92.598,4.11,93.621,3.087" />
    <polygon fill="#474747" points="93.621,3.087,92.598,4.113,92.598,6.885,93.621,7.906" />
    <polygon fill="#595959" points="93.619,7.906,92.598,6.885,89.824,6.885,88.802,7.906" />
    <polygon fill="#373737" points="88.801,7.906,89.824,6.883,89.824,4.11,88.801,3.087" />
    <rect width="7.18" x="94.8" y="1.908" fill="#404040"  height="7.178"/>
    <rect width="2.772" x="97.003" y="4.11"  height="2.773"/>
    <polygon fill="#2A2A29" points="95.98,3.087,97.002,4.11,99.777,4.11,100.799,3.087" />
    <polygon fill="#474747" points="100.799,3.087,99.777,4.113,99.777,6.885,100.799,7.906" />
    <polygon fill="#595959" points="100.798,7.906,99.776,6.885,97.001,6.885,95.98,7.906" />
    <polygon fill="#373737" points="95.979,7.906,97.001,6.883,97.001,4.11,95.979,3.087" />
    <rect width="7.179" x="101.978" y="1.908" fill="#404040"  height="7.178"/>
    <rect width="2.773" x="104.18" y="4.11"  height="2.773"/>
    <polygon fill="#2A2A29" points="103.157,3.087,104.18,4.11,106.954,4.11,107.977,3.087" />
    <polygon fill="#474747" points="107.977,3.087,106.954,4.113,106.954,6.885,107.977,7.906" />
    <polygon fill="#595959" points="107.975,7.906,106.954,6.885,104.179,6.885,103.157,7.906" />
    <polygon fill="#373737" points="103.156,7.906,104.179,6.883,104.179,4.11,103.156,3.087" />
    <rect width="7.178" x="123.638" y="138.684" fill="#404040"  height="7.178"/>
    <rect width="2.772" x="125.84" y="140.887"  height="2.771"/>
    <polygon fill="#2A2A29" points="124.817,139.864,125.838,140.885,128.614,140.885,129.635,139.864" />
    <polygon fill="#474747" points="129.636,139.864,128.614,140.889,128.614,143.661,129.636,144.682" />
    <polygon fill="#595959" points="129.635,144.682,128.614,143.661,125.838,143.661,124.817,144.682" />
    <polygon fill="#373737" points="124.817,144.682,125.838,143.659,125.838,140.885,124.817,139.864" />
    <rect width="7.178" x="102.04" y="138.684" fill="#404040"  height="7.178"/>
    <rect width="2.774" x="104.242" y="140.887"  height="2.771"/>
    <polygon fill="#2A2A29" points="103.217,139.864,104.24,140.885,107.014,140.885,108.036,139.864" />
    <polygon fill="#474747" points="108.038,139.864,107.014,140.889,107.014,143.661,108.038,144.682" />
    <polygon fill="#595959" points="108.036,144.682,107.014,143.661,104.24,143.661,103.217,144.682" />
    <polygon fill="#373737" points="103.217,144.682,104.24,143.659,104.24,140.885,103.217,139.864" />
    <rect width="7.178" x="94.84" y="138.684" fill="#404040"  height="7.178"/>
    <rect width="2.774" x="97.042" y="140.887"  height="2.771"/>
    <polygon fill="#2A2A29" points="96.018,139.864,97.042,140.885,99.815,140.885,100.837,139.864" />
    <polygon fill="#474747" points="100.838,139.864,99.815,140.889,99.815,143.661,100.838,144.682" />
    <polygon fill="#595959" points="100.837,144.682,99.815,143.661,97.042,143.661,96.018,144.682" />
    <polygon fill="#373737" points="96.018,144.682,97.042,143.659,97.042,140.885,96.018,139.864" />
    <rect width="7.178" x="116.44" y="138.684" fill="#404040"  height="7.178"/>
    <rect width="2.774" x="118.642" y="140.887"  height="2.771"/>
    <polygon fill="#2A2A29" points="117.618,139.864,118.64,140.885,121.415,140.885,122.436,139.864" />
    <polygon fill="#474747" points="122.438,139.864,121.415,140.889,121.415,143.661,122.438,144.682" />
    <polygon fill="#595959" points="122.436,144.682,121.415,143.661,118.64,143.661,117.618,144.682" />
    <polygon fill="#373737" points="117.618,144.682,118.64,143.659,118.64,140.885,117.618,139.864" />
    <rect width="7.178" x="109.241" y="138.684" fill="#404040"  height="7.178"/>
    <rect width="2.774" x="111.443" y="140.887"  height="2.771"/>
    <polygon fill="#2A2A29" points="110.418,139.864,111.442,140.885,114.215,140.885,115.238,139.864" />
    <polygon fill="#474747" points="115.239,139.864,114.215,140.889,114.215,143.661,115.239,144.682" />
    <polygon fill="#595959" points="115.238,144.682,114.215,143.661,111.442,143.661,110.418,144.682" />
    <polygon fill="#373737" points="110.418,144.682,111.442,143.659,111.442,140.885,110.418,139.864" />
    <rect width="7.18" x="130.815" y="138.684" fill="#404040"  height="7.178"/>
    <rect width="2.771" x="133.018" y="140.887"  height="2.771"/>
    <polygon fill="#2A2A29" points="131.995,139.864,133.017,140.885,135.79,140.885,136.813,139.864" />
    <polygon fill="#474747" points="136.815,139.864,135.79,140.889,135.79,143.661,136.815,144.682" />
    <polygon fill="#595959" points="136.813,144.682,135.79,143.661,133.015,143.661,131.995,144.682" />
    <polygon fill="#373737" points="131.995,144.682,133.015,143.659,133.015,140.885,131.995,139.864" />
    <rect width="7.18" x="137.993" y="138.684" fill="#404040"  height="7.178"/>
    <rect width="2.774" x="140.196" y="140.887"  height="2.771"/>
    <polygon fill="#2A2A29" points="139.172,139.864,140.194,140.885,142.97,140.885,143.991,139.864" />
    <polygon fill="#474747" points="143.991,139.864,142.97,140.889,142.97,143.661,143.991,144.682" />
    <polygon fill="#595959" points="143.991,144.682,142.97,143.661,140.194,143.661,139.172,144.682" />
    <polygon fill="#373737" points="139.172,144.682,140.194,143.659,140.194,140.885,139.172,139.864" />
    <rect width="7.179" x="145.17" y="138.684" fill="#404040"  height="7.178"/>
    <rect width="2.773" x="147.372" y="140.887"  height="2.771"/>
    <polygon fill="#2A2A29" points="146.348,139.864,147.372,140.885,150.147,140.885,151.168,139.864" />
    <polygon fill="#474747" points="151.168,139.864,150.147,140.889,150.147,143.661,151.168,144.682" />
    <polygon fill="#595959" points="151.168,144.682,150.145,143.661,147.372,143.661,146.348,144.682" />
    <polygon fill="#373737" points="146.348,144.682,147.372,143.659,147.372,140.885,146.348,139.864" />
    <rect width="7.179" x="159.631" y="138.684" fill="#404040"  height="7.178"/>
    <rect width="2.771" x="161.834" y="140.887"  height="2.771"/>
    <polygon fill="#2A2A29" points="160.812,139.864,161.833,140.885,164.608,140.885,165.629,139.864" />
    <polygon fill="#474747" points="165.631,139.864,164.608,140.889,164.608,143.661,165.631,144.682" />
    <polygon fill="#595959" points="165.629,144.682,164.607,143.661,161.833,143.661,160.812,144.682" />
    <polygon fill="#373737" points="160.812,144.682,161.833,143.659,161.833,140.885,160.812,139.864" />
    <rect width="7.178" x="166.81" y="138.684" fill="#404040"  height="7.178"/>
    <rect width="2.773" x="169.012" y="140.887"  height="2.771"/>
    <polygon fill="#2A2A29" points="167.991,139.864,169.012,140.885,171.786,140.885,172.809,139.864" />
    <polygon fill="#474747" points="172.809,139.864,171.786,140.889,171.786,143.661,172.809,144.682" />
    <polygon fill="#595959" points="172.807,144.682,171.784,143.661,169.01,143.661,167.991,144.682" />
    <polygon fill="#373737" points="167.988,144.682,169.01,143.659,169.01,140.885,167.988,139.864" />
    <rect width="7.181" x="173.988" y="138.684" fill="#404040"  height="7.178"/>
    <rect width="2.773" x="176.19" y="140.887"  height="2.771"/>
    <polygon fill="#2A2A29" points="175.165,139.864,176.189,140.885,178.961,140.885,179.985,139.864" />
    <polygon fill="#474747" points="179.985,139.864,178.961,140.889,178.961,143.661,179.985,144.682" />
    <polygon fill="#595959" points="179.985,144.682,178.961,143.661,176.189,143.661,175.165,144.682" />
    <polygon fill="#373737" points="175.165,144.682,176.189,143.659,176.189,140.885,175.165,139.864" />
    <rect width="7.178" x="181.165" y="138.684" fill="#404040"  height="7.178"/>
    <rect width="2.771" x="183.368" y="140.887"  height="2.771"/>
    <polygon fill="#2A2A29" points="182.344,139.864,183.366,140.885,186.141,140.885,187.163,139.864" />
    <polygon fill="#474747" points="187.163,139.864,186.141,140.889,186.141,143.661,187.163,144.682" />
    <polygon fill="#595959" points="187.163,144.682,186.14,143.661,183.366,143.661,182.344,144.682" />
    <polygon fill="#373737" points="182.344,144.682,183.366,143.659,183.366,140.885,182.344,139.864" />
    <rect width="7.177" x="188.342" y="138.684" fill="#404040"  height="7.178"/>
    <rect width="2.772" x="190.543" y="140.887"  height="2.771"/>
    <polygon fill="#2A2A29" points="189.52,139.864,190.543,140.885,193.318,140.885,194.338,139.864" />
    <polygon fill="#474747" points="194.34,139.864,193.318,140.889,193.318,143.661,194.34,144.682" />
    <polygon fill="#595959" points="194.338,144.682,193.316,143.661,190.543,143.661,189.52,144.682" />
    <polygon fill="#373737" points="189.52,144.682,190.543,143.659,190.543,140.885,189.52,139.864" />
    <rect width="7.178" x="195.519" y="138.684" fill="#404040"  height="7.178"/>
    <rect width="2.771" x="197.722" y="140.887"  height="2.771"/>
    <polygon fill="#2A2A29" points="196.698,139.864,197.719,140.885,200.495,140.885,201.516,139.864" />
    <polygon fill="#474747" points="201.518,139.864,200.495,140.889,200.495,143.661,201.518,144.682" />
    <polygon fill="#595959" points="201.516,144.682,200.493,143.661,197.719,143.661,196.698,144.682" />
    <polygon fill="#373737" points="196.698,144.682,197.719,143.659,197.719,140.885,196.698,139.864" />
    <rect width="7.178" x="109.157" y="1.908" fill="#404040"  height="7.178"/>
    <rect width="2.772" x="111.359" y="4.11"  height="2.773"/>
    <polygon fill="#2A2A29" points="110.334,3.087,111.358,4.11,114.131,4.11,115.154,3.087" />
    <polygon fill="#474747" points="115.154,3.087,114.131,4.113,114.131,6.885,115.154,7.906" />
    <polygon fill="#595959" points="115.154,7.906,114.129,6.885,111.358,6.885,110.334,7.906" />
    <polygon fill="#373737" points="110.333,7.906,111.358,6.883,111.358,4.11,110.333,3.087" />
    <rect width="7.18" x="116.333" y="1.908" fill="#404040"  height="7.178"/>
    <rect width="2.771" x="118.536" y="4.11"  height="2.773"/>
    <polygon fill="#2A2A29" points="117.513,3.087,118.536,4.11,121.309,4.11,122.331,3.087" />
    <polygon fill="#474747" points="122.331,3.087,121.309,4.113,121.309,6.885,122.331,7.906" />
    <polygon fill="#595959" points="122.331,7.906,121.308,6.885,118.534,6.885,117.513,7.906" />
    <polygon fill="#373737" points="117.512,7.906,118.534,6.883,118.534,4.11,117.512,3.087" />
    <rect width="7.178" x="123.511" y="1.908" fill="#404040"  height="7.178"/>
    <rect width="2.773" x="125.713" y="4.11"  height="2.773"/>
    <polygon fill="#2A2A29" points="124.692,3.087,125.711,4.11,128.488,4.11,129.51,3.087" />
    <polygon fill="#474747" points="129.51,3.087,128.488,4.113,128.488,6.885,129.51,7.906" />
    <polygon fill="#595959" points="129.508,7.906,128.487,6.885,125.711,6.885,124.692,7.906" />
    <polygon fill="#373737" points="124.69,7.906,125.711,6.883,125.711,4.11,124.69,3.087" />
    <rect width="7.18" x="130.688" y="1.908" fill="#404040"  height="7.178"/>
    <rect width="2.772" x="132.892" y="4.11"  height="2.773"/>
    <polygon fill="#2A2A29" points="131.868,3.087,132.89,4.11,135.665,4.11,136.687,3.087" />
    <polygon fill="#474747" points="136.687,3.087,135.665,4.113,135.665,6.885,136.687,7.906" />
    <polygon fill="#595959" points="136.686,7.906,135.663,6.885,132.89,6.885,131.868,7.906" />
    <polygon fill="#373737" points="131.866,7.906,132.89,6.883,132.89,4.11,131.866,3.087" />
    <rect width="7.181" x="145.234" y="1.908" fill="#404040"  height="7.178"/>
    <rect width="2.771" x="147.438" y="4.11"  height="2.773"/>
    <polygon fill="#2A2A29" points="146.413,3.087,147.435,4.11,150.209,4.11,151.232,3.087" />
    <polygon fill="#474747" points="151.232,3.087,150.209,4.113,150.209,6.885,151.232,7.906" />
    <polygon fill="#595959" points="151.232,7.906,150.209,6.885,147.435,6.885,146.413,7.906" />
    <polygon fill="#373737" points="146.413,7.906,147.435,6.883,147.435,4.11,146.413,3.087" />
    <rect width="7.176" x="152.413" y="1.908" fill="#404040"  height="7.178"/>
    <rect width="2.772" x="154.616" y="4.11"  height="2.773"/>
    <polygon fill="#2A2A29" points="153.59,3.087,154.616,4.11,157.388,4.11,158.409,3.087" />
    <polygon fill="#474747" points="158.411,3.087,157.388,4.113,157.388,6.885,158.411,7.906" />
    <polygon fill="#595959" points="158.409,7.906,157.388,6.885,154.614,6.885,153.59,7.906" />
    <polygon fill="#373737" points="153.59,7.906,154.614,6.883,154.614,4.11,153.59,3.087" />
    <rect width="7.181" x="159.588" y="1.908" fill="#404040"  height="7.178"/>
    <rect width="2.772" x="161.792" y="4.11"  height="2.773"/>
    <polygon fill="#2A2A29" points="160.769,3.087,161.792,4.11,164.565,4.11,165.588,3.087" />
    <polygon fill="#474747" points="165.588,3.087,164.565,4.113,164.565,6.885,165.588,7.906" />
    <polygon fill="#595959" points="165.586,7.906,164.565,6.885,161.79,6.885,160.769,7.906" />
    <polygon fill="#373737" points="160.768,7.906,161.79,6.883,161.79,4.11,160.768,3.087" />
    <rect width="7.179" x="166.767" y="1.908" fill="#404040"  height="7.178"/>
    <rect width="2.772" x="168.97" y="4.11"  height="2.773"/>
    <polygon fill="#2A2A29" points="167.947,3.087,168.967,4.11,171.743,4.11,172.765,3.087" />
    <polygon fill="#474747" points="172.765,3.087,171.743,4.113,171.743,6.885,172.765,7.906" />
    <polygon fill="#595959" points="172.765,7.906,171.741,6.885,168.967,6.885,167.947,7.906" />
    <polygon fill="#373737" points="167.947,7.906,168.967,6.883,168.967,4.11,167.947,3.087" />
    <rect width="7.179" x="173.945" y="1.908" fill="#404040"  height="7.178"/>
    <rect width="2.773" x="176.147" y="4.11"  height="2.773"/>
    <polygon fill="#2A2A29" points="175.124,3.087,176.146,4.11,178.92,4.11,179.942,3.087" />
    <polygon fill="#474747" points="179.942,3.087,178.92,4.113,178.92,6.885,179.942,7.906" />
    <polygon fill="#595959" points="179.942,7.906,178.92,6.885,176.146,6.885,175.124,7.906" />
    <polygon fill="#373737" points="175.124,7.906,176.146,6.883,176.146,4.11,175.124,3.087" />
    <rect width="7.18" x="181.122" y="1.908" fill="#404040"  height="7.178"/>
    <rect width="2.771" x="183.325" y="4.11"  height="2.773"/>
    <polygon fill="#2A2A29" points="182.301,3.087,183.325,4.11,186.097,4.11,187.12,3.087" />
    <polygon fill="#474747" points="187.12,3.087,186.097,4.113,186.097,6.885,187.12,7.906" />
    <polygon fill="#595959" points="187.12,7.906,186.097,6.885,183.325,6.885,182.301,7.906" />
    <polygon fill="#373737" points="182.299,7.906,183.325,6.883,183.325,4.11,182.299,3.087" />
    <rect width="7.179" x="188.299" y="1.908" fill="#404040"  height="7.178"/>
    <rect width="2.771" x="190.502" y="4.11"  height="2.773"/>
    <polygon fill="#2A2A29" points="189.48,3.087,190.502,4.11,193.275,4.11,194.297,3.087" />
    <polygon fill="#474747" points="194.299,3.087,193.275,4.113,193.275,6.885,194.299,7.906" />
    <polygon fill="#595959" points="194.297,7.906,193.275,6.885,190.5,6.885,189.48,7.906" />
    <polygon fill="#373737" points="189.476,7.906,190.5,6.883,190.5,4.11,189.476,3.087" />
    <rect width="7.18" x="195.477" y="1.908" fill="#404040"  height="7.178"/>
    <rect width="2.773" x="197.68" y="4.11"  height="2.773"/>
    <g >
     <polygon fill="#02809E" points="63.114,15.61,63.114,19.543,63.114,22.884,63.114,26.817,64.624,28.327,68.558,28.327,70.066,26.817,70.066,22.884,70.066,19.543,70.066,15.61,68.558,14.099,64.624,14.099" />
     <polygon fill="#02809E" points="70.295,15.61,70.295,19.543,70.295,22.884,70.295,26.817,71.806,28.327,75.737,28.327,77.25,26.817,77.25,22.884,77.25,19.543,77.25,15.61,75.737,14.099,71.806,14.099" />
     <polygon fill="#02809E" points="77.475,15.61,77.475,19.543,77.475,22.884,77.475,26.817,78.985,28.327,82.919,28.327,84.429,26.817,84.429,22.884,84.429,19.543,84.429,15.61,82.919,14.099,78.985,14.099" />
    </g>
    <polygon fill="#2A2A29" points="196.657,3.087,197.679,4.11,200.454,4.11,201.476,3.087" />
    <polygon fill="#474747" points="201.476,3.087,200.454,4.113,200.454,6.885,201.476,7.906" />
    <polygon fill="#595959" points="201.474,7.906,200.452,6.885,197.679,6.885,196.657,7.906" />
    <polygon fill="#373737" points="196.657,7.906,197.679,6.883,197.679,4.11,196.657,3.087" />
    <g >
     <text fill="#FFFFFF" font-family="'ArialMT'"  transform="matrix(0, -1, 1, 0, 71.6445, 21.8477)" font-size="5">SCL</text>
     <text fill="#FFFFFF" font-family="'ArialMT'"  transform="matrix(0, -1, 1, 0, 78.8442, 22.5674)" font-size="5">SDA</text>
     <text fill="#FFFFFF" font-family="'ArialMT'"  transform="matrix(0, -1, 1, 0, 86.0444, 25.4463)" font-size="5">AREF</text>
     <text fill="#FFFFFF" font-family="'ArialMT'"  transform="matrix(0, -1, 1, 0, 93.0444, 22.7422)" font-size="5">GND </text>
     <text fill="#FFFFFF" font-family="'ArialMT'"  transform="matrix(0, -1, 1, 0, 107.404, 136.864)" font-size="5">IOREF</text>
     <text fill="#FFFFFF" font-family="'ArialMT'"  transform="matrix(0, -1, 1, 0, 114.604, 136.864)" font-size="5">RESET</text>
     <text fill="#FFFFFF" font-family="'ArialMT'"  transform="matrix(0, -1, 1, 0, 121.604, 136.864)" font-size="5">3V3</text>
     <text fill="#FFFFFF" font-family="'ArialMT'"  transform="matrix(0, -1, 1, 0, 114.497, 33.9697)" font-size="5">PWM</text>
     <text fill="#FFFFFF" font-family="'ArialMT'"  transform="matrix(0, -1, 1, 0, 121.795, 33.9697)" font-size="5">PWM</text>
     <text fill="#FFFFFF" font-family="'ArialMT'"  transform="matrix(0, -1, 1, 0, 129.096, 33.9697)" font-size="5">PWM</text>
     <text fill="#FFFFFF" font-family="'ArialMT'"  transform="matrix(1, 0, 0, 1, 101.524, 34.0264)" font-size="5">L</text>
     <text fill="#FFFFFF" font-family="'ArialMT'"  transform="matrix(1, 0, 0, 1, 101.524, 46.0264)" font-size="5">TX</text>
     <text fill="#FFFFFF" font-family="'ArialMT'"  transform="matrix(1, 0, 0, 1, 101.524, 52.0264)" font-size="5">RX</text>
     <text fill="#FFFFFF" font-family="'ArialMT'"  transform="matrix(1, 0, 0, 1, 191.491, 49.3145)" font-size="5">ON</text>
     <text fill="#FFFFFF" font-family="'ArialMT'"  transform="matrix(1, 0, 0, 1, 196.334, 86.7681)" font-size="5">ICSP</text>
     <text fill="#FFFFFF" font-family="'ArialMT'"  transform="matrix(0, -1, 1, 0, 158.338, 33.9697)" font-size="5">PWM</text>
     <text fill="#FFFFFF" font-family="'ArialMT'"  transform="matrix(0, -1, 1, 0, 165.488, 33.9697)" font-size="5">PWM</text>
     <text fill="#FFFFFF" font-family="'ArialMT'"  transform="matrix(0, -1, 1, 0, 179.789, 33.9697)" font-size="5">PWM</text>
     <text fill="#FFFFFF" font-family="'ArialMT'"  transform="matrix(0, -1, 1, 0, 194.318, 24.4346)" font-size="5">TX</text>
     <text fill="#FFFFFF" font-family="'ArialMT'"  transform="matrix(0, -1, 1, 0, 201.467, 24.4346)" font-size="5">RX</text>
     <text fill="#FFFFFF" font-family="'ArialMT'"  transform="matrix(1, 0, 0, 1, 96.7324, 15.7803)" font-size="5">3</text>
     <text fill="#FFFFFF" font-family="'ArialMT'"  transform="matrix(1, 0, 0, 1, 96.7324, 21.7803)" font-size="5">1</text>
     <text fill="#FFFFFF" font-family="'ArialMT'"  transform="matrix(1, 0, 0, 1, 103.909, 15.7803)" font-size="5">2</text>
     <text fill="#FFFFFF" font-family="'ArialMT'"  transform="matrix(1, 0, 0, 1, 103.909, 21.7803)" font-size="5">1</text>
     <text fill="#FFFFFF" font-family="'ArialMT'"  transform="matrix(1, 0, 0, 1, 111.086, 15.7803)" font-size="5">1</text>
     <text fill="#FFFFFF" font-family="'ArialMT'"  transform="matrix(1, 0, 0, 1, 111.086, 21.7803)" font-size="5">1</text>
     <text fill="#FFFFFF" font-family="'ArialMT'"  transform="matrix(1, 0, 0, 1, 118.262, 15.7803)" font-size="5">0</text>
     <text fill="#FFFFFF" font-family="'ArialMT'"  transform="matrix(1, 0, 0, 1, 118.262, 21.7803)" font-size="5">1</text>
     <text fill="#FFFFFF" font-family="'ArialMT'"  transform="matrix(1, 0, 0, 1, 125.44, 15.7803)" font-size="5">9</text>
     <text fill="#FFFFFF" font-family="'ArialMT'"  transform="matrix(1, 0, 0, 1, 132.616, 15.7803)" font-size="5">8</text>
     <text fill="#FFFFFF" font-family="'ArialMT'"  transform="matrix(1, 0, 0, 1, 133.445, 21.8477)" font-size="5">DIGITAL</text>
     <text fill="#FFFFFF" font-family="'ArialMT'"  transform="matrix(1, 0, 0, 1, 147.014, 15.7803)" font-size="5">7</text>
     <text fill="#FFFFFF" font-family="'ArialMT'"  transform="matrix(1, 0, 0, 1, 154.198, 15.7803)" font-size="5">6</text>
     <text fill="#FFFFFF" font-family="'ArialMT'"  transform="matrix(1, 0, 0, 1, 161.383, 15.7803)" font-size="5">5</text>
     <text fill="#FFFFFF" font-family="'ArialMT'"  transform="matrix(1, 0, 0, 1, 168.567, 15.7803)" font-size="5">4</text>
     <text fill="#FFFFFF" font-family="'ArialMT'"  transform="matrix(1, 0, 0, 1, 175.75, 15.7803)" font-size="5">3</text>
     <text fill="#FFFFFF" font-family="'ArialMT'"  transform="matrix(1, 0, 0, 1, 182.936, 15.7803)" font-size="5">2</text>
     <text fill="#FFFFFF" font-family="'ArialMT'"  transform="matrix(1, 0, 0, 1, 190.12, 15.7803)" font-size="5">1</text>
     <text fill="#FFFFFF" font-family="'ArialMT'"  transform="matrix(1, 0, 0, 1, 197.303, 15.7803)" font-size="5">0</text>
     <text fill="#FFFFFF" font-family="'ArialMT'"  transform="matrix(4.48966e-11, -1, 1, 4.48966e-11, 200.803, 58.583)" font-size="5">1</text>
     <text fill="#FFFFFF" font-family="'ArialMT'"  transform="matrix(1, 0, 0, 1, 123.131, 136.348)" font-size="5">5V</text>
     <text fill="#FFFFFF" font-family="'ArialMT'"  transform="matrix(1, 0, 0, 1, 132.655, 136.348)" font-size="5">Gnd</text>
     <text fill="#FFFFFF" font-family="'ArialMT'"  transform="matrix(1, 0, 0, 1, 128.147, 129.772)" font-size="5">POWER</text>
     <text fill="#FFFFFF" font-family="'ArialMT'"  transform="matrix(1, 0, 0, 1, 130.915, 119.727)" font-size="5">www.arduino.cc</text>
     <text fill="#FFFFFF" font-family="'ArialMT'"  transform="matrix(1, 0, 0, 1, 165.147, 129.573)" font-size="5">ANALOG IN</text>
     <text fill="#FFFFFF" font-family="'ArialMT'"  transform="matrix(1, 0, 0, 1, 145.627, 136.348)" font-size="5">Vin</text>
     <text fill="#FFFFFF" font-family="'ArialMT'"  transform="matrix(1, 0, 0, 1, 161.481, 136.348)" font-size="5">0</text>
     <text fill="#FFFFFF" font-family="'ArialMT'"  transform="matrix(1, 0, 0, 1, 168.678, 136.348)" font-size="5">1</text>
     <text fill="#FFFFFF" font-family="'ArialMT'"  transform="matrix(1, 0, 0, 1, 175.875, 136.348)" font-size="5">2</text>
     <text fill="#FFFFFF" font-family="'ArialMT'"  transform="matrix(1, 0, 0, 1, 183.073, 136.348)" font-size="5">3</text>
     <text fill="#FFFFFF" font-family="'ArialMT'"  transform="matrix(1, 0, 0, 1, 190.27, 136.348)" font-size="5">4</text>
     <text fill="#FFFFFF" font-family="'ArialMT'"  transform="matrix(1, 0, 0, 1, 197.467, 136.348)" font-size="5">5</text>
     <text fill="#FFFFFF" font-family="'ArialMT'"  transform="matrix(1, 0, 0, 1, 116.104, 49.3789)" font-size="9.1394">Arduino   </text>
     <text fill="#FFFFFF" font-family="'ArialMT'"  transform="matrix(1, 0, 0, 1, 155.589, 49.5361)" font-size="9.1394">UNO</text>
    </g>
    <rect width="14.602" x="66.342" y="41.579" fill="#02809E"  height="13.687"/>
    <rect width="5.076" x="183.092" y="72.766" fill="#02809E"  height="13.79"/>
   </g>
  </g>
 </g>
 <g partID="56400">
  <g transform="translate(64.6672,46.52)">
   <g  id="breadboard">
    <text x="10.8" y="6.48" fill="#787878" font-family="DroidSans"  text-anchor="middle" xmlns:xml="http://www.w3.org/XML/1998/namespace" id="label" xml:space="preserve" stroke-width="0" font-size="7.2">GND</text>
   </g>
  </g>
 </g>
 <g partID="56450">
  <g transform="translate(139.867,47.5867)">
   <g  id="breadboard">
    <text x="14.4" y="6.48" fill="#787878" font-family="DroidSans"  text-anchor="middle" xmlns:xml="http://www.w3.org/XML/1998/namespace" id="label" xml:space="preserve" stroke-width="0" font-size="7.2">SVCC</text>
   </g>
  </g>
 </g>
 <g partID="56480">
  <g transform="translate(115.867,2.52)">
   <g  id="breadboard">
    <text x="25.2" y="6.48" fill="#787878" font-family="DroidSans"  text-anchor="middle" xmlns:xml="http://www.w3.org/XML/1998/namespace" id="label" xml:space="preserve" stroke-width="0" font-size="7.2">HVRESET</text>
   </g>
  </g>
 </g>
 <g partID="56510">
  <g transform="translate(134.267,31.5867)">
   <g  id="breadboard">
    <text x="10.8" y="6.48" fill="#787878" font-family="DroidSans"  text-anchor="middle" xmlns:xml="http://www.w3.org/XML/1998/namespace" id="label" xml:space="preserve" stroke-width="0" font-size="7.2">SDI</text>
   </g>
  </g>
 </g>
 <g partID="56540">
  <g transform="translate(82.2672,17.72)">
   <g  id="breadboard">
    <text x="10.8" y="6.48" fill="#787878" font-family="DroidSans"  text-anchor="middle" xmlns:xml="http://www.w3.org/XML/1998/namespace" id="label" xml:space="preserve" stroke-width="0" font-size="7.2">SDO</text>
   </g>
  </g>
 </g>
 <g partID="56570">
  <g transform="translate(75.0672,33.72)">
   <g  id="breadboard">
    <text x="10.8" y="6.48" fill="#787878" font-family="DroidSans"  text-anchor="middle" xmlns:xml="http://www.w3.org/XML/1998/namespace" id="label" xml:space="preserve" stroke-width="0" font-size="7.2">SCI</text>
   </g>
  </g>
 </g>
 <g partID="56900">
  <g transform="translate(123.067,16.92)">
   <g  id="breadboard">
    <text x="10.8" y="6.48" fill="#787878" font-family="DroidSans"  text-anchor="middle" xmlns:xml="http://www.w3.org/XML/1998/namespace" id="label" xml:space="preserve" stroke-width="0" font-size="7.2">SII</text>
   </g>
  </g>
 </g>
 <path fill="none" stroke="#8c8c8c" stroke-linejoin="round" stroke-linecap="round" stroke-width="2.16" d="M120.233,250.556L133.467,234.4L134.404,211.176"/>
 <path fill="none" stroke="#8c8c8c" stroke-linejoin="round" stroke-linecap="round" stroke-width="2.16" d="M113.033,250.556L112.83,211.176"/>
 <g partID="57750">
  <g transform="translate(123.754,285.308)">
   <g transform="matrix(-1,0,0,-1,0,0)">
    <g  id="breadboard">
     <g >
      <rect width="2.16" x="9.6408" y="32.5368" fill="none"  height="0.72" id="connector1pin"/>
      <rect width="2.16" x="2.4408" y="32.5368" fill="none"  height="0.72" id="connector0pin"/>
      <g fill="none"  stroke="#8C8C8C" id="connector0leg" stroke-linecap="round" y1="48.266" x1="4.89" y2="62.266" stroke-width="2.16" x2="4.89"/>
      <g fill="none"  stroke="#8C8C8C" id="connector1leg" stroke-linecap="round" y1="48.266" x1="14.89" y2="62.266" stroke-width="2.16" x2="14.89"/>
      <rect width="2.16" x="2.4408" y="26.8315" fill="#8C8C8C"  height="7.92"/>
      <rect width="2.16" x="9.6408" y="26.8315" fill="#8C8C8C"  height="7.92"/>
      <ellipse fill="#0D0033" cx="7.08768"  cy="26.8315" rx="7.08624" ry="4.96008"/>
      <rect width="14.1689" y="25.8199" fill="#0D0033"  height="1.01088"/>
      <ellipse fill="#100040" cx="7.08768"  cy="26.028" rx="7.08624" ry="4.96152"/>
      <ellipse fill="#0D0033" cx="7.08768"  cy="22.5799" rx="7.08624" ry="4.96152"/>
      <rect width="14.1739" y="5.03568" fill="#0D0033"  height="17.5442"/>
      <ellipse fill="#0D0033" cx="7.08768"  cy="5.03496" rx="7.08624" ry="4.96152"/>
      <ellipse fill="#100040" cx="7.08768"  cy="4.59576" rx="6.56352" ry="4.59576"/>
      <ellipse fill="#B2B2B2" cx="7.08768"  cy="4.33008" rx="4.81104" ry="3.36816"/>
      <path fill="#D2EEFF"  d="M1.38384,2.09016C0.51552,2.91384,0,3.93336,0,5.03568L0,7.776l0.94824,0l0,-0.26352l0.0108,-0.10008c0,0,0,0.05112,0,-0.13392c0,-0.33192,0.15768,-0.54504,0.42408,-0.65088c0.25704,-0.10224,0.23832,-1.91592,0.23832,-1.91592L1.38384,2.09016z"/>
      <path fill="#D2EEFF"  d="M2.27736,4.33008c0,-0.59832,0.2232,-1.15704,0.612,-1.64304L1.38384,2.08728C0.83808,2.7576,0.52344,3.53088,0.52344,4.35672c0,0.82584,0.31536,1.60056,0.8604,2.27016l1.54152,-0.61344C2.51568,5.5188,2.27736,4.94352,2.27736,4.33008z"/>
      <rect width="0.95904" y="7.4124" fill="#D2EEFF"  height="15.1668"/>
      <rect width="0.95904" y="19.265" fill="#D2EEFF"  height="1.63152"/>
      <path fill="#D2EEFF"  d="M0,26.0273l0,0.80208c0,0.90792,0.34992,1.75752,0.95904,2.48976l0,-0.80136l0,-4.18032l0,-0.80136C0.34992,24.2712,0,25.1201,0,26.0273z"/>
      <path fill="#D2EEFF"  d="M0.95904,20.0887C0.34992,20.821,0,21.6713,0,22.5799s0.34992,1.7568,0.95904,2.48976L0.95904,20.0887z"/>
      <path fill="#D2EEFF"  d="M0.95904,28.9354c0,0,0,-0.18432,0,-0.41688c0,-0.23328,0.04968,-1.0404,0.1296,-1.39968c0.1296,-0.594,0.40464,-1.00296,0.40464,-1.6308c0,-0.21168,-0.12024,-0.50976,-0.30024,-0.68976c-0.17784,-0.17784,-0.23832,-0.4572,-0.23832,-0.74808c0,-0.2916,0,-0.66384,0,-0.66384l-0.4104,0.01368l0.04464,5.11344L0.95904,28.9354z"/>
      <path opacity="0.35"  d="M7.08768,1.12104c2.61936,0,4.74408,1.46592,4.80528,3.28896c0.00072,-0.02736,0.00792,-0.05328,0.00792,-0.07992c0,-1.86048,-2.15496,-3.36816,-4.81176,-3.36816c-2.65536,0,-4.81032,1.50768,-4.81032,3.36816c0,0.02664,0.00504,0.05256,0.00648,0.07992C2.34288,2.58696,4.46832,1.12104,7.08768,1.12104z"/>
      <path opacity="0.35"  d="M9.15768,10.0498l0,7.78464l0,5.96376c0,0,0,3.05712,0,3.17952c0,0.12096,-0.04032,0.22248,-0.08928,0.3168c-0.05832,0.10944,-0.1908,0.28152,-0.1908,0.28152c1.88784,-0.40464,3.54744,-1.49544,4.40352,-2.718c0.05904,-0.0756,0.12096,-0.23616,0.14184,-0.30528c0.02088,-0.07128,0.02952,-0.1404,0.02952,-0.1404l0,-0.61416l0,-3.39696L13.4525,7.4844C12.5978,8.7084,11.0441,9.64656,9.15768,10.0498z"/>
      <path opacity="0.35"  d="M13.343,27.7474c-0.06624,-0.17712,-0.25632,-0.40032,-0.25632,-0.40032c-0.85536,1.22256,-2.34792,1.87488,-4.23504,2.27664c0,0,0.1692,0.288,0.24408,0.53424c0.072,0.2448,0.06336,0.61488,0.06336,0.61488l0,0.8028c1.88712,-0.40248,3.4416,-1.3428,4.29552,-2.56464c0,0,0,-0.55872,0,-0.7056C13.4546,28.139,13.3992,27.8928,13.343,27.7474z"/>
      <path opacity="0.2" fill="#FFFFFF"  d="M6.76944,29.2529c-0.01296,-0.17064,-0.04464,-0.3204,-0.08928,-0.45072c-3.01104,-0.13248,-5.4576,-1.70568,-5.95512,-3.74616c-0.09576,0.0756,-0.2052,0.17928,-0.27144,0.29592c-0.05256,0.09792,-0.1008,0.23904,-0.1404,0.3744c0.48096,2.2356,3.16008,3.96288,6.44976,4.07016C6.77736,29.646,6.78384,29.4653,6.76944,29.2529z"/>
      <path opacity="0.2" fill="#FFFFFF"  d="M9.72864,8.62128c0.00504,-0.10872,-0.07992,-0.18432,-0.14904,-0.21384c-0.07344,-0.0324,-0.1944,-0.08064,-0.42336,-0.02016l-0.01944,0c-0.64296,0.15912,-1.32984,0.25128,-2.05056,0.25128c-3.39768,0,-6.1524,-1.92888,-6.1524,-4.30776c0,-0.06696,0.00936,-0.1332,0.01368,-0.19872c0,-0.00576,-0.00576,-0.00936,-0.00576,-0.01656c0,-0.10584,-0.04248,-0.24408,-0.13248,-0.25776C0.70632,3.8376,0.65592,3.92256,0.60552,4.03056C0.58032,4.08312,0.56088,4.15872,0.5472,4.24656C0.54504,4.25736,0.5436,4.27032,0.54216,4.28112C0.54,4.29264,0.54,4.30776,0.53856,4.32C0.52776,4.41072,0.52272,4.50288,0.52272,4.59504c0,2.53728,2.93904,4.59576,6.56352,4.59576c0.9108,0,1.76904,-0.13968,2.55456,-0.3744C9.7164,8.77824,9.72432,8.7156,9.72864,8.62128z"/>
      <path fill="#FFFFFF"  d="M0.45432,25.3519c-0.05256,0.09792,-0.1008,0.23904,-0.1404,0.3744c0.11952,0.55584,0.37512,1.08144,0.74376,1.55808c0.01008,-0.06264,0.01944,-0.11808,0.03096,-0.16632c0.06408,-0.29232,0.162,-0.53712,0.2448,-0.78552c-0.28656,-0.396,-0.49824,-0.82512,-0.60696,-1.27584C0.62928,25.1309,0.52128,25.236,0.45432,25.3519z"/>
      <path fill="#FFFFFF"  d="M0.93456,4.33008c0,-0.06696,0.01008,-0.1332,0.0144,-0.19872C0.94608,4.12488,0.94032,4.122,0.94032,4.11408c0,-0.10584,-0.04176,-0.24408,-0.13104,-0.25776C0.70632,3.8376,0.65592,3.92256,0.60552,4.03056C0.5796,4.08312,0.56088,4.15872,0.5472,4.24656C0.54504,4.25736,0.54216,4.27032,0.54144,4.28112C0.54,4.29264,0.53928,4.30776,0.53856,4.32C0.52776,4.41072,0.52272,4.50288,0.52272,4.59504c0,0.75888,0.26784,1.47312,0.73296,2.10456c0.04032,-0.02664,0.08064,-0.05256,0.12816,-0.072l0.37512,-0.14976C1.23696,5.84568,0.93456,5.11416,0.93456,4.33008z"/>
     </g>
    </g>
   </g>
  </g>
 </g>
 <g partID="56110">
  <line stroke="#1b5bb3" stroke-linecap="round" y1="34.1333" x1="134.279" y2="76" stroke-width="3.2" x2="134.279"/>
  <line stroke="#418dd9" stroke-linecap="round" y1="34.1333" x1="134.279" y2="76" stroke-width="1.6" x2="134.279"/>
 </g>
 <g partID="56140">
  <line stroke="#999999" stroke-linecap="round" y1="18.4" x1="105.567" y2="76" stroke-width="3.2" x2="105.567"/>
  <line stroke="#ffffff" stroke-linecap="round" y1="18.4" x1="105.567" y2="76" stroke-width="1.6" x2="105.567"/>
 </g>
 <g partID="56170">
  <line stroke="#00a6d3" stroke-linecap="round" y1="32.8" x1="98.3888" y2="76" stroke-width="3.2" x2="98.3888"/>
  <line stroke="#47cc79" stroke-linecap="round" y1="32.8" x1="98.3888" y2="76" stroke-width="1.6" x2="98.3888"/>
 </g>
 <g partID="56260">
  <line stroke="#e6ab00" stroke-linecap="round" y1="3.2" x1="119.921" y2="76" stroke-width="3.2" x2="119.921"/>
  <line stroke="#ffe24d" stroke-linecap="round" y1="3.2" x1="119.921" y2="76" stroke-width="1.6" x2="119.921"/>
 </g>
 <g partID="56870">
  <line stroke="#7a3a73" stroke-linecap="round" y1="19.2" x1="127.101" y2="76" stroke-width="3.2" x2="127.101"/>
  <line stroke="#ab58a2" stroke-linecap="round" y1="19.2" x1="127.101" y2="76" stroke-width="1.6" x2="127.101"/>
 </g>
 <g partID="57350">
  <line stroke="#000000" stroke-linecap="round" y1="46.4" x1="91.2112" y2="76" stroke-width="3.2" x2="91.2112"/>
  <line stroke="#404040" stroke-linecap="round" y1="46.4" x1="91.2112" y2="76" stroke-width="1.6" x2="91.2112"/>
 </g>
 <g partID="57440">
  <line stroke="#8c0000" stroke-linecap="round" y1="75.2" x1="142.267" y2="212.776" stroke-width="3.2" x2="163.221"/>
  <line stroke="#cc1414" stroke-linecap="round" y1="75.2" x1="142.267" y2="212.776" stroke-width="1.6" x2="163.221"/>
 </g>
 <g partID="57380">
  <line stroke="#8c0000" stroke-linecap="round" y1="49.0667" x1="142.267" y2="75.2" stroke-width="3.2" x2="142.267"/>
  <line stroke="#cc1414" stroke-linecap="round" y1="49.0667" x1="142.267" y2="75.2" stroke-width="1.6" x2="142.267"/>
 </g>
</svg>
