<svg xmlns="http://www.w3.org/2000/svg" version="1.1" viewBox="0 0 430.0 436.0">
  <defs>
  <style type="text/css"><![CDATA[
     .ic       { fill:#909090; stroke:#000000; stroke-width:2.0 }
     .notch    { fill:#a0a0a0; stroke:#000000; stroke-width:1.0 }
     .pin      { fill:#d0d0d0; stroke:#000000; stroke-width:1.0 }
     .pinno    { font-family:"Courier"; font-size:12px }
     .label    { font-family:"Helvetica"; font-size:18px }
     .funbox   { stroke:black }
     .function { font-family:"Helvetica"; font-size:18px; text-anchor:middle }
     .title    { font-family:"Helvetica-Bold"; font-size:20px; text-anchor:middle; writing-mode:tb; alignment-baseline:central }
     ]]>
  </style>
  </defs>
  <rect class="ic" x="185.0" y="5" width="60.0" height="426.0"/>
  <path class="notch" d="M204.5,5 a10.500000000000002,10.500000000000002 0 0,0 21.000000000000004,0"/>
    <text class="title" x="215.0" y="218.0">
    ATmega328
  </text>

    <rect class="pin" x="170.0" y="15.500000000000002" width="15.0" height="15.0"/>
  <text class="label" x="165.0" y="29.0" text-anchor="end">
    PC6
  </text>
  <text class="pinno" x="188.0" y="26.5">
    1
  </text>
  <rect class="funbox" x="0" y="10.500000000000002"
        width="100" height="25.0" rx="3"
        style="fill:green"/>
  <text class="function" x="50" y="29.0"
        style="fill:white">
    RESET
  </text>
  <rect class="pin" x="170.0" y="45.5" width="15.0" height="15.0"/>
  <text class="label" x="165.0" y="59.0" text-anchor="end">
    PD0
  </text>
  <text class="pinno" x="188.0" y="56.5">
    2
  </text>
  <rect class="pin" x="170.0" y="75.5" width="15.0" height="15.0"/>
  <text class="label" x="165.0" y="89.0" text-anchor="end">
    PD1
  </text>
  <text class="pinno" x="188.0" y="86.5">
    3
  </text>
  <rect class="funbox" x="0" y="70.5"
        width="100" height="25.0" rx="3"
        style="fill:sienna"/>
  <text class="function" x="50" y="89.0"
        style="fill:white">
    RDY
  </text>
  <rect class="pin" x="170.0" y="105.5" width="15.0" height="15.0"/>
  <text class="label" x="165.0" y="119.0" text-anchor="end">
    PD2
  </text>
  <text class="pinno" x="188.0" y="116.5">
    4
  </text>
  <rect class="funbox" x="0" y="100.5"
        width="100" height="25.0" rx="3"
        style="fill:silver"/>
  <text class="function" x="50" y="119.0"
        style="fill:red">
    CTRL2
  </text>
  <rect class="pin" x="170.0" y="135.5" width="15.0" height="15.0"/>
  <text class="label" x="165.0" y="149.0" text-anchor="end">
    PD3
  </text>
  <text class="pinno" x="188.0" y="146.5">
    5
  </text>
  <rect class="funbox" x="0" y="130.5"
        width="100" height="25.0" rx="3"
        style="fill:silver"/>
  <text class="function" x="50" y="149.0"
        style="fill:orange">
    CTRL3
  </text>
  <rect class="pin" x="170.0" y="165.5" width="15.0" height="15.0"/>
  <text class="label" x="165.0" y="179.0" text-anchor="end">
    PD4
  </text>
  <text class="pinno" x="188.0" y="176.5">
    6
  </text>
  <rect class="funbox" x="0" y="160.5"
        width="100" height="25.0" rx="3"
        style="fill:silver"/>
  <text class="function" x="50" y="179.0"
        style="fill:gold">
    CTRL4
  </text>
  <rect class="pin" x="170.0" y="195.5" width="15.0" height="15.0"/>
  <text class="label" x="165.0" y="209.0" text-anchor="end">
    VCC
  </text>
  <text class="pinno" x="188.0" y="206.5">
    7
  </text>
  <rect class="funbox" x="0" y="190.5"
        width="100" height="25.0" rx="3"
        style="fill:red"/>
  <text class="function" x="50" y="209.0"
        style="fill:white">
    VCC
  </text>
  <rect class="pin" x="170.0" y="225.5" width="15.0" height="15.0"/>
  <text class="label" x="165.0" y="239.0" text-anchor="end">
    GND
  </text>
  <text class="pinno" x="188.0" y="236.5">
    8
  </text>
  <rect class="funbox" x="0" y="220.5"
        width="100" height="25.0" rx="3"
        style="fill:black"/>
  <text class="function" x="50" y="239.0"
        style="fill:white">
    GND
  </text>
  <rect class="pin" x="170.0" y="255.5" width="15.0" height="15.0"/>
  <text class="label" x="165.0" y="269.0" text-anchor="end">
    PB6
  </text>
  <text class="pinno" x="188.0" y="266.5">
    9
  </text>
  <rect class="funbox" x="0" y="250.5"
        width="100" height="25.0" rx="3"
        style="fill:orchid"/>
  <text class="function" x="50" y="269.0"
        style="fill:black">
    XTAL
  </text>
  <rect class="pin" x="170.0" y="285.5" width="15.0" height="15.0"/>
  <text class="label" x="165.0" y="299.0" text-anchor="end">
    PB7
  </text>
  <text class="pinno" x="188.0" y="296.5">
    10
  </text>
  <rect class="pin" x="170.0" y="315.5" width="15.0" height="15.0"/>
  <text class="label" x="165.0" y="329.0" text-anchor="end">
    PD5
  </text>
  <text class="pinno" x="188.0" y="326.5">
    11
  </text>
  <rect class="funbox" x="0" y="310.5"
        width="100" height="25.0" rx="3"
        style="fill:silver"/>
  <text class="function" x="50" y="329.0"
        style="fill:green">
    CTRL5
  </text>
  <rect class="pin" x="170.0" y="345.5" width="15.0" height="15.0"/>
  <text class="label" x="165.0" y="359.0" text-anchor="end">
    PD6
  </text>
  <text class="pinno" x="188.0" y="356.5">
    12
  </text>
  <rect class="funbox" x="0" y="340.5"
        width="100" height="25.0" rx="3"
        style="fill:silver"/>
  <text class="function" x="50" y="359.0"
        style="fill:blue">
    CTRL6
  </text>
  <rect class="pin" x="170.0" y="375.5" width="15.0" height="15.0"/>
  <text class="label" x="165.0" y="389.0" text-anchor="end">
    PD7
  </text>
  <text class="pinno" x="188.0" y="386.5">
    13
  </text>
  <rect class="funbox" x="0" y="370.5"
        width="100" height="25.0" rx="3"
        style="fill:silver"/>
  <text class="function" x="50" y="389.0"
        style="fill:orchid">
    CTRL7
  </text>
  <rect class="pin" x="170.0" y="405.5" width="15.0" height="15.0"/>
  <text class="label" x="165.0" y="419.0" text-anchor="end">
    PB0
  </text>
  <text class="pinno" x="188.0" y="416.5">
    14
  </text>
  <rect class="funbox" x="0" y="400.5"
        width="100" height="25.0" rx="3"
        style="fill:white"/>
  <text class="function" x="50" y="419.0"
        style="fill:black">
    DATA0
  </text>
  <rect class="pin" x="245.0" y="405.5" width="15.0" height="15.0"/>
  <text class="pinno" x="242.0" y="416.5" text-anchor="end">
    15
  </text>
  <text class="label" x="265.0" y="419.0">
    PB1
  </text>
  <rect class="funbox" x="330.0" y="400.5"
        width="100" height="25.0" rx="3"
        style="fill:white"/>
  <text class="function" x="385.0" y="419.0"
        style="fill:brown">
    DATA1
  </text>
  <rect class="pin" x="245.0" y="375.5" width="15.0" height="15.0"/>
  <text class="pinno" x="242.0" y="386.5" text-anchor="end">
    16
  </text>
  <text class="label" x="265.0" y="389.0">
    PB2
  </text>
  <rect class="funbox" x="330.0" y="370.5"
        width="100" height="25.0" rx="3"
        style="fill:white"/>
  <text class="function" x="385.0" y="389.0"
        style="fill:red">
    DATA2
  </text>
  <rect class="pin" x="245.0" y="345.5" width="15.0" height="15.0"/>
  <text class="pinno" x="242.0" y="356.5" text-anchor="end">
    17
  </text>
  <text class="label" x="265.0" y="359.0">
    PB3
  </text>
  <rect class="funbox" x="330.0" y="340.5"
        width="100" height="25.0" rx="3"
        style="fill:white"/>
  <text class="function" x="385.0" y="359.0"
        style="fill:orange">
    DATA3
  </text>
  <rect class="pin" x="245.0" y="315.5" width="15.0" height="15.0"/>
  <text class="pinno" x="242.0" y="326.5" text-anchor="end">
    18
  </text>
  <text class="label" x="265.0" y="329.0">
    PB4
  </text>
  <rect class="funbox" x="330.0" y="310.5"
        width="100" height="25.0" rx="3"
        style="fill:white"/>
  <text class="function" x="385.0" y="329.0"
        style="fill:gold">
    DATA4
  </text>
  <rect class="pin" x="245.0" y="285.5" width="15.0" height="15.0"/>
  <text class="pinno" x="242.0" y="296.5" text-anchor="end">
    19
  </text>
  <text class="label" x="265.0" y="299.0">
    PB5
  </text>
  <rect class="funbox" x="330.0" y="280.5"
        width="100" height="25.0" rx="3"
        style="fill:white"/>
  <text class="function" x="385.0" y="299.0"
        style="fill:green">
    DATA5
  </text>
  <rect class="pin" x="245.0" y="255.5" width="15.0" height="15.0"/>
  <text class="pinno" x="242.0" y="266.5" text-anchor="end">
    20
  </text>
  <text class="label" x="265.0" y="269.0">
    AVCC
  </text>
  <rect class="funbox" x="330.0" y="250.5"
        width="100" height="25.0" rx="3"
        style="fill:red"/>
  <text class="function" x="385.0" y="269.0"
        style="fill:white">
    VCC
  </text>
  <rect class="pin" x="245.0" y="225.5" width="15.0" height="15.0"/>
  <text class="pinno" x="242.0" y="236.5" text-anchor="end">
    21
  </text>
  <text class="label" x="265.0" y="239.0">
    AREF
  </text>
  <rect class="pin" x="245.0" y="195.5" width="15.0" height="15.0"/>
  <text class="pinno" x="242.0" y="206.5" text-anchor="end">
    22
  </text>
  <text class="label" x="265.0" y="209.0">
    GND2
  </text>
  <rect class="funbox" x="330.0" y="190.5"
        width="100" height="25.0" rx="3"
        style="fill:black"/>
  <text class="function" x="385.0" y="209.0"
        style="fill:white">
    GND
  </text>
  <rect class="pin" x="245.0" y="165.5" width="15.0" height="15.0"/>
  <text class="pinno" x="242.0" y="176.5" text-anchor="end">
    23
  </text>
  <text class="label" x="265.0" y="179.0">
    PC0
  </text>
  <rect class="funbox" x="330.0" y="160.5"
        width="100" height="25.0" rx="3"
        style="fill:white"/>
  <text class="function" x="385.0" y="179.0"
        style="fill:blue">
    DATA6
  </text>
  <rect class="pin" x="245.0" y="135.5" width="15.0" height="15.0"/>
  <text class="pinno" x="242.0" y="146.5" text-anchor="end">
    24
  </text>
  <text class="label" x="265.0" y="149.0">
    PC1
  </text>
  <rect class="funbox" x="330.0" y="130.5"
        width="100" height="25.0" rx="3"
        style="fill:white"/>
  <text class="function" x="385.0" y="149.0"
        style="fill:orchid">
    DATA7
  </text>
  <rect class="pin" x="245.0" y="105.5" width="15.0" height="15.0"/>
  <text class="pinno" x="242.0" y="116.5" text-anchor="end">
    25
  </text>
  <text class="label" x="265.0" y="119.0">
    PC2
  </text>
  <rect class="funbox" x="330.0" y="100.5"
        width="100" height="25.0" rx="3"
        style="fill:silver"/>
  <text class="function" x="385.0" y="119.0"
        style="fill:black">
    CTRL0
  </text>
  <rect class="pin" x="245.0" y="75.5" width="15.0" height="15.0"/>
  <text class="pinno" x="242.0" y="86.5" text-anchor="end">
    26
  </text>
  <text class="label" x="265.0" y="89.0">
    PC3
  </text>
  <rect class="pin" x="245.0" y="45.5" width="15.0" height="15.0"/>
  <text class="pinno" x="242.0" y="56.5" text-anchor="end">
    27
  </text>
  <text class="label" x="265.0" y="59.0">
    PC4
  </text>
  <rect class="pin" x="245.0" y="15.500000000000002" width="15.0" height="15.0"/>
  <text class="pinno" x="242.0" y="26.5" text-anchor="end">
    28
  </text>
  <text class="label" x="265.0" y="29.0">
    PC5
  </text>

</svg>
