<svg xmlns="http://www.w3.org/2000/svg" version="1.1"
     xmlns:xlink="http://www.w3.org/1999/xlink"
     viewBox="0 0 248.8 265.168">
  <defs>
  <style type="text/css"><![CDATA[
     .ic       { fill:#909090; stroke:#000000; stroke-width:2.0 }
     .notch    { fill:#a0a0a0; stroke:#000000; stroke-width:1.0 }
     .pin      { fill:#d0d0d0; stroke:#000000; stroke-width:1.0 }
     .callout  { fill:none; stroke-width:3.0; stroke-linecap:round }
     .calloutb { stroke:white; fill:none;
                 stroke-width:5.0; stroke:opacity:75%; stroke-linecap:round }
     .function { font-family:"Courier"; font-size:13px; text-anchor:middle }
     .funbox   { stroke:black }
     ]]>
  </style>
  </defs>
  <image xlink:href="fritzing/svg/core/breadboard/Arduino Nano3_breadboard.svg"
      x="74" y="5" width="100.8" height="255.168" />
  
    <rect class="funbox" x="1" y="63.580000000000005"
        width="69" height="13" rx="3"
        style="fill:black"/>
  <text class="function" x="34" y="75.08000000000001"
        style="fill:white">
    GND
  </text>
  <rect class="funbox" x="1" y="121.17999999999999"
        width="69" height="13" rx="3"
        style="fill:green"/>
  <text class="function" x="34" y="132.68"
        style="fill:white">
    ⚪️ (RDY)
  </text>
  <rect class="funbox" x="1" y="135.58"
        width="69" height="13" rx="3"
        style="fill:gold"/>
  <text class="function" x="34" y="147.08"
        style="fill:black">
    ⚪️ (VFY)
  </text>
  <rect class="funbox" x="1" y="149.98"
        width="69" height="13" rx="3"
        style="fill:orange"/>
  <text class="function" x="34" y="161.48"
        style="fill:black">
    ⚪️ (PGM)
  </text>
  <rect class="funbox" x="1" y="164.38"
        width="69" height="13" rx="3"
        style="fill:red"/>
  <text class="function" x="34" y="175.88"
        style="fill:white">
    ⚪️ (ERR)
  </text>
  <rect class="funbox" x="1" y="193.18"
        width="69" height="13" rx="3"
        style="fill:darkgreen"/>
  <text class="function" x="34" y="204.68"
        style="fill:white">
    ⚡️RESET⚡️
  </text>
  <rect class="funbox" x="1" y="207.57999999999998"
        width="69" height="13" rx="3"
        style="fill:red"/>
  <text class="function" x="34" y="219.07999999999998"
        style="fill:white">
    VCC
  </text>
  <rect class="funbox" x="178.8" y="149.98"
        width="69" height="13" rx="3"
        style="fill:white"/>
  <text class="function" x="213.8" y="161.48"
        style="fill:black">
    TPIDATA
  </text>
  <rect class="funbox" x="178.8" y="135.58"
        width="69" height="13" rx="3"
        style="fill:gold"/>
  <text class="function" x="213.8" y="147.08"
        style="fill:black">
    TPICLK
  </text>
  <rect class="funbox" x="178.8" y="121.17999999999999"
        width="69" height="13" rx="3"
        style="fill:lime"/>
  <text class="function" x="213.8" y="132.68"
        style="fill:black">
    (DEBUG)
  </text>

</svg>
