<svg xmlns="http://www.w3.org/2000/svg" version="1.1" viewBox="0 0 450.0 436.0">
  <defs>
  <style type="text/css"><![CDATA[
     .thinline { fill:none; stroke:#000000; stroke-width:1.0 }
     .thickline{ fill:none; stroke:#000000; stroke-width:2.0 }
     .pinno    { font-family:"Courier"; font-size:12px }
     .label    { font-family:"Helvetica"; font-size:18px }
     .function { font-family:"Comic Sans MS"; font-size:24px }
     .title    { font-family:"Helvetica-Bold"; font-size:20px; text-anchor:middle; writing-mode:tb; alignment-baseline:central }
     ]]>
  </style>
  </defs>
  <rect class="thickline" x="195.0" y="5" width="60.0" height="426.0"/>
  <path class="thinline" d="M214.5,5 a10.5,10.5 0 0,0 21.0,0"/>
    <text class="title" x="225.0" y="218.0">
    ATmega328
  </text>

    <rect class="thinline" x="180.0" y="15.5" width="15.0" height="15.0"/>
  <text class="function" x="95.0" y="30.5" text-anchor="end">
    RESET
  </text>
  <text class="label" x="175.0" y="29.0" text-anchor="end">
    PC6
  </text>
  <text class="pinno" x="198.0" y="26.5">
    1
  </text>
  <rect class="thinline" x="180.0" y="45.5" width="15.0" height="15.0"/>
  <text class="function" x="95.0" y="60.5" text-anchor="end">
    
  </text>
  <text class="label" x="175.0" y="59.0" text-anchor="end">
    PD0
  </text>
  <text class="pinno" x="198.0" y="56.5">
    2
  </text>
  <rect class="thinline" x="180.0" y="75.5" width="15.0" height="15.0"/>
  <text class="function" x="95.0" y="90.5" text-anchor="end">
    RDY
  </text>
  <text class="label" x="175.0" y="89.0" text-anchor="end">
    PD1
  </text>
  <text class="pinno" x="198.0" y="86.5">
    3
  </text>
  <rect class="thinline" x="180.0" y="105.5" width="15.0" height="15.0"/>
  <text class="function" x="95.0" y="120.5" text-anchor="end">
    CTRL2
  </text>
  <text class="label" x="175.0" y="119.0" text-anchor="end">
    PD2
  </text>
  <text class="pinno" x="198.0" y="116.5">
    4
  </text>
  <rect class="thinline" x="180.0" y="135.5" width="15.0" height="15.0"/>
  <text class="function" x="95.0" y="150.5" text-anchor="end">
    CTRL3
  </text>
  <text class="label" x="175.0" y="149.0" text-anchor="end">
    PD3
  </text>
  <text class="pinno" x="198.0" y="146.5">
    5
  </text>
  <rect class="thinline" x="180.0" y="165.5" width="15.0" height="15.0"/>
  <text class="function" x="95.0" y="180.5" text-anchor="end">
    CTRL4
  </text>
  <text class="label" x="175.0" y="179.0" text-anchor="end">
    PD4
  </text>
  <text class="pinno" x="198.0" y="176.5">
    6
  </text>
  <rect class="thinline" x="180.0" y="195.5" width="15.0" height="15.0"/>
  <text class="function" x="95.0" y="210.5" text-anchor="end">
    VCC
  </text>
  <text class="label" x="175.0" y="209.0" text-anchor="end">
    VCC
  </text>
  <text class="pinno" x="198.0" y="206.5">
    7
  </text>
  <rect class="thinline" x="180.0" y="225.5" width="15.0" height="15.0"/>
  <text class="function" x="95.0" y="240.5" text-anchor="end">
    GND
  </text>
  <text class="label" x="175.0" y="239.0" text-anchor="end">
    GND
  </text>
  <text class="pinno" x="198.0" y="236.5">
    8
  </text>
  <rect class="thinline" x="180.0" y="255.5" width="15.0" height="15.0"/>
  <text class="function" x="95.0" y="270.5" text-anchor="end">
    
  </text>
  <text class="label" x="175.0" y="269.0" text-anchor="end">
    PB6
  </text>
  <text class="pinno" x="198.0" y="266.5">
    9
  </text>
  <rect class="thinline" x="180.0" y="285.5" width="15.0" height="15.0"/>
  <text class="function" x="95.0" y="300.5" text-anchor="end">
    
  </text>
  <text class="label" x="175.0" y="299.0" text-anchor="end">
    PB7
  </text>
  <text class="pinno" x="198.0" y="296.5">
    10
  </text>
  <rect class="thinline" x="180.0" y="315.5" width="15.0" height="15.0"/>
  <text class="function" x="95.0" y="330.5" text-anchor="end">
    CTRL5
  </text>
  <text class="label" x="175.0" y="329.0" text-anchor="end">
    PD5
  </text>
  <text class="pinno" x="198.0" y="326.5">
    11
  </text>
  <rect class="thinline" x="180.0" y="345.5" width="15.0" height="15.0"/>
  <text class="function" x="95.0" y="360.5" text-anchor="end">
    CTRL6
  </text>
  <text class="label" x="175.0" y="359.0" text-anchor="end">
    PD6
  </text>
  <text class="pinno" x="198.0" y="356.5">
    12
  </text>
  <rect class="thinline" x="180.0" y="375.5" width="15.0" height="15.0"/>
  <text class="function" x="95.0" y="390.5" text-anchor="end">
    CTRL7
  </text>
  <text class="label" x="175.0" y="389.0" text-anchor="end">
    PD7
  </text>
  <text class="pinno" x="198.0" y="386.5">
    13
  </text>
  <rect class="thinline" x="180.0" y="405.5" width="15.0" height="15.0"/>
  <text class="function" x="95.0" y="420.5" text-anchor="end">
    DATA0
  </text>
  <text class="label" x="175.0" y="419.0" text-anchor="end">
    PB0
  </text>
  <text class="pinno" x="198.0" y="416.5">
    14
  </text>
  <rect class="thinline" x="255.0" y="405.5" width="15.0" height="15.0"/>
  <text class="pinno" x="252.0" y="416.5" text-anchor="end">
    15
  </text>
  <text class="label" x="275.0" y="419.0">
    PB1
  </text>
  <text class="function" x="355.0" y="420.5">
    DATA1
  </text>
  <rect class="thinline" x="255.0" y="375.5" width="15.0" height="15.0"/>
  <text class="pinno" x="252.0" y="386.5" text-anchor="end">
    16
  </text>
  <text class="label" x="275.0" y="389.0">
    PB2
  </text>
  <text class="function" x="355.0" y="390.5">
    DATA2
  </text>
  <rect class="thinline" x="255.0" y="345.5" width="15.0" height="15.0"/>
  <text class="pinno" x="252.0" y="356.5" text-anchor="end">
    17
  </text>
  <text class="label" x="275.0" y="359.0">
    PB3
  </text>
  <text class="function" x="355.0" y="360.5">
    DATA3
  </text>
  <rect class="thinline" x="255.0" y="315.5" width="15.0" height="15.0"/>
  <text class="pinno" x="252.0" y="326.5" text-anchor="end">
    18
  </text>
  <text class="label" x="275.0" y="329.0">
    PB4
  </text>
  <text class="function" x="355.0" y="330.5">
    DATA4
  </text>
  <rect class="thinline" x="255.0" y="285.5" width="15.0" height="15.0"/>
  <text class="pinno" x="252.0" y="296.5" text-anchor="end">
    19
  </text>
  <text class="label" x="275.0" y="299.0">
    PB5
  </text>
  <text class="function" x="355.0" y="300.5">
    DATA5
  </text>
  <rect class="thinline" x="255.0" y="255.5" width="15.0" height="15.0"/>
  <text class="pinno" x="252.0" y="266.5" text-anchor="end">
    20
  </text>
  <text class="label" x="275.0" y="269.0">
    AVCC
  </text>
  <text class="function" x="355.0" y="270.5">
    VCC
  </text>
  <rect class="thinline" x="255.0" y="225.5" width="15.0" height="15.0"/>
  <text class="pinno" x="252.0" y="236.5" text-anchor="end">
    21
  </text>
  <text class="label" x="275.0" y="239.0">
    AREF
  </text>
  <text class="function" x="355.0" y="240.5">
    
  </text>
  <rect class="thinline" x="255.0" y="195.5" width="15.0" height="15.0"/>
  <text class="pinno" x="252.0" y="206.5" text-anchor="end">
    22
  </text>
  <text class="label" x="275.0" y="209.0">
    GND2
  </text>
  <text class="function" x="355.0" y="210.5">
    GND
  </text>
  <rect class="thinline" x="255.0" y="165.5" width="15.0" height="15.0"/>
  <text class="pinno" x="252.0" y="176.5" text-anchor="end">
    23
  </text>
  <text class="label" x="275.0" y="179.0">
    PC0
  </text>
  <text class="function" x="355.0" y="180.5">
    DATA6
  </text>
  <rect class="thinline" x="255.0" y="135.5" width="15.0" height="15.0"/>
  <text class="pinno" x="252.0" y="146.5" text-anchor="end">
    24
  </text>
  <text class="label" x="275.0" y="149.0">
    PC1
  </text>
  <text class="function" x="355.0" y="150.5">
    DATA7
  </text>
  <rect class="thinline" x="255.0" y="105.5" width="15.0" height="15.0"/>
  <text class="pinno" x="252.0" y="116.5" text-anchor="end">
    25
  </text>
  <text class="label" x="275.0" y="119.0">
    PC2
  </text>
  <text class="function" x="355.0" y="120.5">
    CTRL0
  </text>
  <rect class="thinline" x="255.0" y="75.5" width="15.0" height="15.0"/>
  <text class="pinno" x="252.0" y="86.5" text-anchor="end">
    26
  </text>
  <text class="label" x="275.0" y="89.0">
    PC3
  </text>
  <text class="function" x="355.0" y="90.5">
    
  </text>
  <rect class="thinline" x="255.0" y="45.5" width="15.0" height="15.0"/>
  <text class="pinno" x="252.0" y="56.5" text-anchor="end">
    27
  </text>
  <text class="label" x="275.0" y="59.0">
    PC4
  </text>
  <text class="function" x="355.0" y="60.5">
    
  </text>
  <rect class="thinline" x="255.0" y="15.5" width="15.0" height="15.0"/>
  <text class="pinno" x="252.0" y="26.5" text-anchor="end">
    28
  </text>
  <text class="label" x="275.0" y="29.0">
    PC5
  </text>
  <text class="function" x="355.0" y="30.5">
    
  </text>

</svg>
